<?xml version="1.0" encoding="utf-8"?>
<!-- Generator: Adobe Illustrator 19.1.0, SVG Export Plug-In . SVG Version: 6.00 Build 0)  -->
<svg version="1.1" id="Слой_1" xmlns="http://www.w3.org/2000/svg" xmlns:xlink="http://www.w3.org/1999/xlink" x="0px" y="0px"
	 viewBox="-272 395.9 50 50" style="enable-background:new -272 395.9 50 50;" xml:space="preserve">
<style type="text/css">
	.st0{fill:none;stroke:#40373F;stroke-width:2;stroke-miterlimit:10;}
	.st1{fill:#40373F;}
</style>
<line class="st0" x1="-236.1" y1="426.8" x2="-236.1" y2="436.9"/>
<line class="st0" x1="-231" y1="431.8" x2="-241.1" y2="431.8"/>
<path class="st1" d="M-236.1,441.9c-5.6,0-10.1-4.5-10.1-10.1c0-5.6,4.5-10.1,10.1-10.1c5.6,0,10.1,4.5,10.1,10.1
	C-226,437.4-230.5,441.9-236.1,441.9z M-236.1,423.4c-4.6,0-8.4,3.8-8.4,8.4c0,4.6,3.8,8.4,8.4,8.4c4.6,0,8.4-3.8,8.4-8.4
	C-227.7,427.2-231.4,423.4-236.1,423.4z"/>
<path class="st1" d="M-243.7,404c-0.7-1.2-1.8-1.9-3.3-2.2c-0.8-1-2.3-1.5-4.4-1.5c-3.1,0.1-5.4,1-6.7,2.8c-1.6,2.1-1.9,5.4-0.9,9.6
	c-0.4,0.5-0.7,1.2-0.5,2.1c0.2,1.9,0.9,2.6,1.5,2.9c0.3,1.5,1.1,3.1,1.9,3.9l0,0.4c0,0.9,0,1.6-0.1,2.5c-0.5,1.2-2.2,1.9-4.2,2.6
	c-3.3,1.3-7.4,2.9-7.7,8l-0.1,0.9h12.7h2.5h3.3h2.5h1.8c-0.6-1.3-0.9-2.7-0.9-4.2c0-2.1,0.7-4.1,1.8-5.7c-0.6-0.3-1.1-0.6-1.4-1
	c-0.1-0.2-0.3-0.4-0.4-0.6c-0.1-1-0.1-1.7-0.1-2.5l0-0.4c0.8-0.8,1.5-2.4,1.8-3.9c0.6-0.3,1.3-1.1,1.5-2.9c0.1-0.9-0.2-1.6-0.5-2.1
	C-243,411.1-242,406.7-243.7,404z"/>
</svg>
