<!-- Generator: Adobe Illustrator 15.0.0, SVG Export Plug-In . SVG Version: 6.00 Build 0)  -->
<!DOCTYPE svg PUBLIC "-//W3C//DTD SVG 1.1//EN" "http://www.w3.org/Graphics/SVG/1.1/DTD/svg11.dtd"[]>
<svg version="1.1" id="Слой_1" xmlns="http://www.w3.org/2000/svg" xmlns:xlink="http://www.w3.org/1999/xlink" x="0px" y="0px" width="50px" height="50px" viewBox="0 0 50 50" enable-background="new 0 0 50 50" xml:space="preserve" fill="#40373F">
<path d="M0,16v32c0,1.159,0.841,2,2,2h46c1.159,0,2-0.841,2-2V16H0z M15,42H8v-5h7V42z M15,35H8v-5h7V35z M15,28H8v-5h7V28z M24,42  h-7v-5h7V42z M24,35h-7v-5h7V35z M24,28h-7v-5h7V28z M33,42h-7v-5h7V42z M33,35h-7v-5h7V35z M33,28h-7v-5h7V28z M42,42h-7v-5h7V42z   M42,35h-7v-5h7V35z M42,28h-7v-5h7V28z" fill="#40373F" />
<path d="M37,0c-0.6,0-1,0.4-1,1v6c0,0.6,0.4,1,1,1h2c0.6,0,1-0.4,1-1V1c0-0.6-0.4-1-1-1H37z" fill="#40373F" />
<path d="M11,0c-0.6,0-1,0.4-1,1v6c0,0.6,0.4,1,1,1h2c0.6,0,1-0.4,1-1V1c0-0.6-0.4-1-1-1H11z" fill="#40373F" />
<path d="M48,4h-6v3c0,1.71-1.29,3-3,3h-2c-1.71,0-3-1.29-3-3V4H16v3c0,1.71-1.29,3-3,3h-2c-1.71,0-3-1.29-3-3V4H2  C0.841,4,0,4.841,0,6v8h50V6C50,4.841,49.159,4,48,4z" fill="#40373F" />
</svg>