<!-- Generator: Adobe Illustrator 15.0.0, SVG Export Plug-In . SVG Version: 6.00 Build 0)  -->
<!DOCTYPE svg PUBLIC "-//W3C//DTD SVG 1.1//EN" "http://www.w3.org/Graphics/SVG/1.1/DTD/svg11.dtd"[]>
<svg version="1.1" id="Слой_1" xmlns="http://www.w3.org/2000/svg" xmlns:xlink="http://www.w3.org/1999/xlink" x="0px" y="0px" width="50px" height="50px" viewBox="0 0 50 50" enable-background="new 0 0 50 50" xml:space="preserve" fill="#40373F">
<circle cx="20.5" cy="4.5" r="4.5" fill="#40373F" />
<path d="M39.7,11.7C39.1,10.8,38,10.6,37.1,11.2l-4.3,2.9l-4.5-4.5C27.9,9.2,27.2,9,26.6,9.1L17.4,11c-0.6,0.1-1.1,0.6-1.3,1.1  L13,20l-5.8-1.5c-1-0.2-2,0.4-2.2,1.4s0.4,2,1.3,2.3l7.4,1.9c0.1,0,0.3,0.1,0.4,0.1c0.7,0,1.4-0.5,1.7-1.2l1.1-2.7v8.801L14,37.2  c-0.2,0.4-0.2,0.9,0,1.4L18.042,48.8c0.3,0.7,1,1.2,1.7,1.2c0.2,0,0.5,0,0.7-0.1c0.9-0.4,1.4-1.5,1-2.4L18.3,37.7l3.8-8.4l1.1,8.301  c0,0.399,0.1,0.8,0.4,1.1l6.067,8.175c0.4,0.5,0.9,0.699,1.5,0.699c0.4,0,0.801-0.1,1.101-0.399c0.8-0.601,1-1.8,0.399-2.601  L27.1,36.9V13.4l4.301,4.4c0.6,0.6,1.6,0.7,2.3,0.2l5.5-3.7C40,13.7,40.3,12.6,39.7,11.7z" fill="#40373F" />
<path d="M49,25c-2,0-2.7-1-4.6-1c-0.4,0-0.5,0.3-0.5,1c0,1.3,0,5.6,0,7s-0.2,4-4,4c-3.4,0-4-2.2-4-3c0-1.8,1.1-3,4-3c2,0,2-0.9,2-2  c0-4,0-6.4,0-7c0-0.5,0.199-1,1-1c3.399,0,2.399,1,6,1c0.6,0,1,0.2,1,1c0,0.5,0,0.8,0,2.1C50,25,49,25,49,25z" fill="#40373F" />
</svg>