<?xml version="1.0" encoding="utf-8"?>
<!-- Generator: Adobe Illustrator 19.1.0, SVG Export Plug-In . SVG Version: 6.00 Build 0)  -->
<svg version="1.1" id="Layer_1" xmlns="http://www.w3.org/2000/svg" xmlns:xlink="http://www.w3.org/1999/xlink" x="0px" y="0px"
	 viewBox="-272 395.9 50 50" style="enable-background:new -272 395.9 50 50;" xml:space="preserve">
<style type="text/css">
	.st0{fill:#40373F;}
	.st1{fill:none;stroke:#40373F;stroke-width:2;stroke-linecap:round;stroke-linejoin:round;stroke-miterlimit:10;}
</style>
<path class="st0" d="M-238.3,401.2c-2.4,0-4.3,1.9-4.3,4.3c0,2.4,1.9,4.3,4.3,4.3c2.4,0,4.3-1.9,4.3-4.3
	C-234,403.1-236,401.2-238.3,401.2z"/>
<path class="st0" d="M-256.3,401.2c-2.4,0-4.3,1.9-4.3,4.3c0,2.4,1.9,4.3,4.3,4.3c2.4,0,4.3-1.9,4.3-4.3
	C-252,403.1-254,401.2-256.3,401.2z"/>
<circle class="st1" cx="-246.9" cy="416.6" r="3.4"/>
<path class="st0" d="M-234,432h-3.4v6.9c0,0.9,0.8,1.7,1.7,1.7l0,0c0.9,0,1.7-0.8,1.7-1.7V432z"/>
<path class="st0" d="M-238.3,432h-3.4v6.9c0,0.9,0.8,1.7,1.7,1.7l0,0c0.9,0,1.7-0.8,1.7-1.7V432z"/>
<path class="st1" d="M-245.6,439.8L-245.6,439.8c0.7,0,1.3-0.6,1.3-1.3V432h0.9c0.9,0,1.7-0.8,1.7-1.7v-6.9c0-1.4-1.2-2.6-2.6-2.6
	h-5.1c-1.4,0-2.6,1.2-2.6,2.6v6.9c0,0.9,0.8,1.7,1.7,1.7h0.9v6.4c0,0.7,0.6,1.3,1.3,1.3H-245.6z"/>
<path class="st0" d="M-249.7,416.8c0-2.2,0.7-2.2,1.3-2.6c-0.1-0.2-0.3-1.9-1.3-2.7l-0.1-0.1c-0.8-0.6-1.7-0.9-2.7-0.9h-7.7
	c-2.6,0-4.7,2.1-4.7,4.7v11.5c0,0.9,0.6,1.6,1.4,1.8c1.1,0.2,2-0.7,2-1.7v-8.6h0.9v20.2c0,1.2,1,2.1,2.1,2.1l0,0
	c1.2,0,2.1-1,2.1-2.1v-10.7h0.9v10.7c0,1.2,1,2.1,2.1,2.1l0,0c1.2,0,2.1-1,2.1-2.1V426v-4.3h4.3V420
	C-246.9,420-249.7,419-249.7,416.8z"/>
<path class="st0" d="M-234.3,418.4l0.8-0.3l2.8,8.6c0.2,0.6,0.8,1.1,1.5,1.1c0,0,0,0,0,0c1,0,1.8-1,1.5-2c-1.3-3.9-4-12-4-12
	c-0.5-1.5-1.8-3.2-4-3.2h-5.1c-1.1,0-2.1,0.4-2.9,1.3l-1.7,2c-0.2,0.3,1.8,0.4,1.8,2.7c0,2.3-2.2,2.9-2.2,2.9v1.3
	c0,0.2,0.1,0.5,0.3,0.6c1.7,0,2.8,0.2,3.1,0.9c0.4,0.7,1.1,6.7,0.2,8.6c0.2,0.2,0.4,0.3,0.6,0.3h9.2c1.2,0,2-1.1,1.6-2.2
	L-234.3,418.4z"/>
</svg>
