<?xml version="1.0" encoding="utf-8"?>
<!-- Generator: Adobe Illustrator 19.1.0, SVG Export Plug-In . SVG Version: 6.00 Build 0)  -->
<svg version="1.1" id="Layer_1" xmlns="http://www.w3.org/2000/svg" xmlns:xlink="http://www.w3.org/1999/xlink" x="0px" y="0px"
	 viewBox="-272 395.9 50 50" style="enable-background:new -272 395.9 50 50;" xml:space="preserve">
<style type="text/css">
	.st0{fill:#40373F;}
</style>
<g>
	<path class="st0" d="M-259.5,413.4h-5.3v5.6h3.8v2.9h-3.8v9.3h-3.2v-20.9h8.4V413.4z"/>
	<path class="st0" d="M-254.5,431.3h-3.2v-20.9h4.4c1.8,0,3.2,0.5,4,1.5c0.8,1,1.2,2.5,1.2,4.6c0,1.4-0.2,2.4-0.5,3.2
		c-0.3,0.8-0.9,1.5-1.6,2l2.4,9.6h-3.3l-1.9-8.7h-1.5V431.3z M-253.5,419.7c0.5,0,0.9,0,1.2-0.1c0.2-0.1,0.5-0.3,0.6-0.5
		c0.2-0.3,0.3-0.6,0.4-1c0.1-0.4,0.1-0.9,0.1-1.4c0-0.6-0.1-1.1-0.2-1.6c-0.1-0.5-0.3-0.8-0.4-1c-0.2-0.2-0.4-0.3-0.6-0.4
		c-0.2-0.1-0.6-0.1-1.1-0.1h-1v6.3H-253.5z"/>
	<path class="st0" d="M-236.9,413.4h-5.4v5.6h3.9v2.9h-3.9v6.4h5.4v2.9h-8.5v-20.9h8.5V413.4z"/>
	<path class="st0" d="M-226.1,413.4h-5.4v5.6h3.9v2.9h-3.9v6.4h5.4v2.9h-8.5v-20.9h8.5V413.4z"/>
</g>
</svg>
