<?xml version="1.0" encoding="UTF-8"?>
<svg xmlns="http://www.w3.org/2000/svg" xmlns:xlink="http://www.w3.org/1999/xlink" width="50pt" height="50pt" viewBox="0 0 50 50" version="1.1">
<g id="surface1">
<path style="fill:none;stroke-width:2;stroke-linecap:butt;stroke-linejoin:miter;stroke:rgb(25.098039%,21.568627%,24.705882%);stroke-opacity:1;stroke-miterlimit:10;" d="M 47 25 C 47 37.148438 37.148438 47 25 47 C 12.851563 47 3 37.148438 3 25 C 3 12.851563 12.851563 3 25 3 C 37.148438 3 47 12.851563 47 25 Z "/>
<path style=" stroke:none;fill-rule:nonzero;fill:rgb(25.098039%,21.568627%,24.705882%);fill-opacity:1;" d="M 23.5 31.398438 L 22.101563 31.398438 L 21.800781 29.898438 C 21.199219 30.601563 20.101563 31.699219 18 31.699219 C 13.601563 31.699219 12 27.800781 12 25 C 12 23 13 18.300781 18 18.300781 C 22.5 18.300781 23.300781 22 23.300781 22.699219 L 21.199219 22.699219 C 21.101563 22.300781 20.699219 20.199219 18 20.199219 C 14.398438 20.199219 14.199219 24.5 14.199219 25.101563 C 14.199219 28.601563 16.101563 30 18 30 C 20.5 30 21.5 28.398438 21.5 26.5 L 18.199219 26.5 L 18.199219 24.800781 L 23.5 24.800781 Z "/>
<path style=" stroke:none;fill-rule:nonzero;fill:rgb(25.098039%,21.568627%,24.705882%);fill-opacity:1;" d="M 32 18.300781 C 35.601563 18.300781 38 21.199219 38 25 C 38 28.398438 36 31.699219 32 31.699219 C 27.101563 31.699219 26 27.199219 26 25 C 26 20.199219 29.300781 18.300781 32 18.300781 Z M 32 20.101563 C 28.398438 20.101563 28.199219 24.398438 28.199219 25 C 28.199219 26.5 28.699219 29.898438 32 29.898438 C 34 29.898438 35.800781 28.300781 35.800781 25 C 35.800781 24.398438 35.699219 20.101563 32 20.101563 Z "/>
</g>
</svg>
