<?xml version="1.0" encoding="utf-8"?>
<!-- Generator: Adobe Illustrator 19.1.0, SVG Export Plug-In . SVG Version: 6.00 Build 0)  -->
<svg version="1.1" id="Слой_1" xmlns="http://www.w3.org/2000/svg" xmlns:xlink="http://www.w3.org/1999/xlink" x="0px" y="0px"
	 viewBox="-272 395.9 50 50" style="enable-background:new -272 395.9 50 50;" xml:space="preserve">
<style type="text/css">
	.st0{fill:none;}
	.st1{fill:#40373F;}
	.st2{fill:none;stroke:#40373F;stroke-width:2;stroke-linecap:round;stroke-miterlimit:10;}
</style>
<g>
	<path class="st0" d="M-252.1,423.2c0,1.6,1.3,2.9,2.9,2.9s2.9-1.3,2.9-2.9c0,0,0,0,0,0l-1,1l-3.1-2.5l1.3-1.3c0,0,0,0-0.1,0
		C-250.9,420.3-252.1,421.6-252.1,423.2z"/>
	<path class="st0" d="M-256.8,425.5c-0.2-0.2-0.4-0.2-0.6,0l-0.8,0.8c-0.2,0.2-0.2,0.4,0,0.6l5.1,5.1c0.2,0.2,0.4,0.2,0.6,0l0.8-0.9
		c0.2-0.2,0.2-0.4,0-0.6L-256.8,425.5z"/>
	<path class="st0" d="M-233,405.6c-0.2-0.2-0.4-0.2-0.6,0l-2.6,2.6c-0.2,0.2-0.2,0.4,0,0.6c0.1,0.1,0.2,0.1,0.3,0.1
		c0.1,0,0.2,0,0.3-0.1l2.6-2.6C-232.8,406-232.8,405.7-233,405.6z"/>
	<path class="st0" d="M-232.2,406.9l-2.6,2.6c-0.2,0.2-0.2,0.4,0,0.6c0.1,0.1,0.2,0.1,0.3,0.1c0.1,0,0.2,0,0.3-0.1l2.6-2.6
		c0.2-0.2,0.2-0.4,0-0.6C-231.8,406.7-232.1,406.7-232.2,406.9z"/>
	<path class="st1" d="M-230.4,406.1l-1.9-1.9c-0.5-0.5-1.4-0.5-1.9,0l-3.1,3.1c-0.3,0.3-0.4,0.8-0.3,1.3l-5.3,5.3l2.8,2.8l5.3-5.3
		c0.4,0.1,0.9,0,1.3-0.3l3.1-3.1C-229.9,407.5-229.9,406.7-230.4,406.1z M-235.9,408.9c-0.1,0-0.2,0-0.3-0.1c-0.2-0.2-0.2-0.4,0-0.6
		l2.6-2.6c0.2-0.2,0.4-0.2,0.6,0c0.2,0.2,0.2,0.4,0,0.6l-2.6,2.6C-235.7,408.8-235.8,408.9-235.9,408.9z M-231.7,407.4l-2.6,2.6
		c-0.1,0.1-0.2,0.1-0.3,0.1c-0.1,0-0.2,0-0.3-0.1c-0.2-0.2-0.2-0.4,0-0.6l2.6-2.6c0.2-0.2,0.4-0.2,0.6,0
		C-231.5,407-231.5,407.3-231.7,407.4z"/>
	<path class="st1" d="M-246.4,423.2c0,1.6-1.3,2.9-2.9,2.9s-2.9-1.3-2.9-2.9c0-1.6,1.3-2.9,2.9-2.9c0,0,0,0,0.1,0l6.4-6.4l-0.1-0.1
		c-1.3-1.1-3.2-2.4-5.4-2.4c-1.1,0-2.1,0.3-3.1,1c-1.3,0.9-1.7,2.1-2.1,3.1c-0.2,0.6-0.4,1.2-0.8,1.6c-0.4,0.4-1.2,0.5-2.1,0.7
		c-1.8,0.3-4.2,0.8-6.5,3.1c-1.4,1.4-2.1,3.1-2.1,4.9c0,2.7,1.6,5.7,4.6,8.5c2.9,3,5.9,4.6,8.6,4.6c1.8,0,3.5-0.7,4.9-2.1
		c2.3-2.3,2.7-4.7,3.1-6.5c0.2-0.9,0.3-1.7,0.7-2.1c0.4-0.4,0.9-0.6,1.6-0.8c1-0.3,2.2-0.7,3.1-2.1c1.7-2.5,1.2-5.5-1.5-8.5l0,0
		L-246.4,423.2C-246.4,423.1-246.4,423.2-246.4,423.2z M-251.7,431.2l-0.8,0.9c-0.2,0.2-0.4,0.2-0.6,0l-5.1-5.1
		c-0.2-0.2-0.2-0.4,0-0.6l0.8-0.8c0.2-0.2,0.4-0.2,0.6,0l5.1,5.1C-251.5,430.8-251.5,431-251.7,431.2z"/>
</g>
<line class="st2" x1="-232.1" y1="410.3" x2="-231.4" y2="411"/>
<line class="st2" x1="-230.7" y1="408.9" x2="-230" y2="409.6"/>
<line class="st2" x1="-237.1" y1="405.3" x2="-236.4" y2="406"/>
<line class="st2" x1="-235.7" y1="403.9" x2="-235" y2="404.6"/>
<g>
	<path class="st1" d="M-249.3,420.3c1.6,0,2.9,1.3,2.9,2.9c0,1.6-1.3,2.9-2.9,2.9s-2.9-1.3-2.9-2.9
		C-252.1,421.6-250.9,420.3-249.3,420.3 M-249.3,418.9c-2.4,0-4.3,1.9-4.3,4.3s1.9,4.3,4.3,4.3s4.3-1.9,4.3-4.3
		S-246.9,418.9-249.3,418.9L-249.3,418.9z"/>
</g>
</svg>
