<?xml version="1.0" encoding="UTF-8"?>
<svg xmlns="http://www.w3.org/2000/svg" xmlns:xlink="http://www.w3.org/1999/xlink" width="50pt" height="50pt" viewBox="0 0 50 50" version="1.1">
<g id="surface1">
<path style=" stroke:none;fill-rule:nonzero;fill:rgb(25.098039%,21.568627%,24.705882%);fill-opacity:1;" d="M 37.15625 37.96875 C 29.339844 37.96875 25.757813 31.28125 22.597656 25.382813 C 19.46875 19.546875 17.285156 16.003906 13.34375 16.003906 C 8 16.003906 3.972656 19.882813 3.972656 25.027344 C 3.972656 26.132813 3.074219 27.027344 1.972656 27.027344 C 0.867188 27.027344 -0.0273438 26.132813 -0.0273438 25.027344 C -0.0273438 17.722656 5.84375 12.003906 13.34375 12.003906 C 19.964844 12.003906 23.09375 17.84375 26.121094 23.496094 C 29.007813 28.882813 31.734375 33.96875 37.15625 33.96875 C 41.890625 33.96875 46.039063 29.792969 46.039063 25.03125 C 46.039063 23.925781 46.9375 23.03125 48.039063 23.03125 C 49.144531 23.03125 50.039063 23.925781 50.039063 25.03125 C 50.039063 32.042969 44.140625 37.96875 37.15625 37.96875 Z "/>
<path style=" stroke:none;fill-rule:nonzero;fill:rgb(25.098039%,21.568627%,24.705882%);fill-opacity:1;" d="M 21.054688 26.738281 C 19.082031 31.070313 17.253906 34.078125 13.21875 34.078125 C 7.835938 34.078125 3.929688 30.273438 3.929688 25.027344 L 3.929688 24.027344 L 0.0117188 24.027344 L 0.0117188 25.027344 C 0.0117188 32.425781 5.6875 38 13.21875 38 C 18.632813 38 21.398438 34.550781 23.390625 30.855469 C 22.539063 29.484375 21.773438 28.082031 21.054688 26.738281 Z "/>
<path style=" stroke:none;fill-rule:nonzero;fill:rgb(25.098039%,21.568627%,24.705882%);fill-opacity:1;" d="M 36.875 12 C 31.382813 12 28.390625 15.671875 26.265625 19.597656 C 26.828125 20.578125 27.363281 21.578125 27.886719 22.554688 C 28.121094 22.988281 28.347656 23.40625 28.570313 23.816406 C 30.550781 19.488281 32.558594 15.921875 36.875 15.921875 C 42.210938 15.921875 46.082031 19.75 46.082031 25.027344 L 46.082031 26.027344 L 50 26.027344 L 50 25.027344 C 50 17.722656 44.234375 12 36.875 12 Z "/>
</g>
</svg>
