<?xml version="1.0" encoding="utf-8"?>
<!-- Generator: Adobe Illustrator 19.1.0, SVG Export Plug-In . SVG Version: 6.00 Build 0)  -->
<svg version="1.1" id="Layer_1" xmlns="http://www.w3.org/2000/svg" xmlns:xlink="http://www.w3.org/1999/xlink" x="0px" y="0px"
	 viewBox="-272 395.9 50 50" style="enable-background:new -272 395.9 50 50;" xml:space="preserve">
<style type="text/css">
	.st0{fill:#41373F;stroke:#40373F;stroke-miterlimit:10;}
</style>
<g>
	<g>
		<path class="st0" d="M-246.5,434.9c4.7,0,9-2.4,11.6-6.3c0.3-0.5,0.3-1.1-0.1-1.6c-0.4-0.5-1-0.6-1.5-0.5
			c-1.2,0.4-2.3,0.6-3.3,0.6c-5.7,0-10.4-4.7-10.4-10.4c0-2.7,1-5.2,2.9-7.2c0.4-0.4,0.5-1,0.2-1.6c-0.3-0.5-0.8-0.8-1.4-0.7
			c-6.8,0.9-12,6.8-12,13.7C-260.4,428.6-254.2,434.9-246.5,434.9"/>
	</g>
</g>
</svg>
