<?xml version="1.0" encoding="utf-8"?>
<!-- Generator: Adobe Illustrator 19.1.0, SVG Export Plug-In . SVG Version: 6.00 Build 0)  -->
<svg version="1.1" id="Layer_1" xmlns="http://www.w3.org/2000/svg" xmlns:xlink="http://www.w3.org/1999/xlink" x="0px" y="0px"
	 viewBox="-272 395.9 50 50" style="enable-background:new -272 395.9 50 50;" xml:space="preserve">
<style type="text/css">
	.st0{fill:#40373F;}
	.st1{fill:none;stroke:#40373F;stroke-width:2;stroke-linecap:round;stroke-linejoin:round;stroke-miterlimit:10;}
</style>
<g>
	<path class="st0" d="M-258.2,410.4c-0.3-2.2-0.3-4.2-0.2-5.2h23.8c0,1,0,3-0.2,5.3L-258.2,410.4l15.1,15.1c0.4-0.3,0.8-0.5,1.3-0.7
		c0.1-0.1,0.2-0.1,0.3-0.1c0.1,0,0.1,0,0.1-0.1c0,0,0,0,0.1,0c1.3-0.6,2.5-1.4,3.4-2.5c5.6-6,4.8-17.3,4.8-17.7
		c0-0.3-0.4-0.6-0.7-0.6h-25.3c-0.4,0-0.7,0.3-0.7,0.7c0,0.1-0.1,1.9,0,4.4L-258.2,410.4z"/>
	<path class="st0" d="M-240,434.6c-1.6-0.7-4.2-1.8-4.2-2.8v-4.1c0-0.1,0-0.4,0.1-0.5l-1.1-1.1c-0.2,0.5-0.4,1-0.4,1.6v4.1
		c0,2,2.8,3.1,5.1,4.2c0.4,0.1,0.9,0.4,1.3,0.6h-14.5c0.4-0.2,1-0.4,1.4-0.6c2.4-1,5.1-2.2,5.1-4.2v-4.1c0-0.7-0.2-1.4-0.6-1.9
		c0.4,0.1,0.9,0.1,1.3,0.1c0.3,0,0.6,0,0.9-0.1l-13.9-13.9c0.5,3.5,1.8,7.5,4.4,10.4c1,1,2.2,1.9,3.4,2.5c0,0,0.1,0,0.1,0.1
		c0.1,0,0.1,0.1,0.1,0.1c0.1,0.1,0.2,0.1,0.3,0.1c1,0.5,2.5,1.4,2.5,2.8v4.1c0,1-2.6,2.1-4.2,2.8c-1.9,0.8-3.1,1.3-3.2,2.2
		c0,0.2,0,0.7,0.4,1c0.1,0.1,0.3,0.1,0.4,0.1h17.4c0.1,0,0.3-0.1,0.4-0.1c0.5-0.4,0.5-0.8,0.4-1C-237,435.9-238.2,435.4-240,434.6z"
		/>
</g>
<line class="st1" x1="-263.3" y1="404.9" x2="-232.7" y2="435.4"/>
</svg>
