<?xml version="1.0" encoding="utf-8"?>
<!-- Generator: Adobe Illustrator 19.1.0, SVG Export Plug-In . SVG Version: 6.00 Build 0)  -->
<svg version="1.1" id="Layer_1" xmlns="http://www.w3.org/2000/svg" xmlns:xlink="http://www.w3.org/1999/xlink" x="0px" y="0px"
	 viewBox="-272 395.9 50 50" style="enable-background:new -272 395.9 50 50;" xml:space="preserve">
<style type="text/css">
	.st0{fill:#40373F;}
</style>
<g>
	<path class="st0" d="M-256.9,433.7h-3.9v-25.6h5.4c1.2,0,2.3,0.1,3.1,0.4s1.5,0.7,2.1,1.3c0.5,0.6,0.9,1.4,1.1,2.3
		c0.2,0.9,0.3,2.1,0.3,3.5s-0.1,2.5-0.3,3.5s-0.6,1.7-1.1,2.3c-0.5,0.6-1.2,1-2,1.3s-1.9,0.4-3.1,0.4h-1.5v10.6H-256.9z
		 M-255.7,419.5c0.6,0,1.1-0.1,1.5-0.2s0.7-0.3,0.9-0.6c0.2-0.3,0.4-0.7,0.5-1.2s0.1-1.2,0.1-1.9c0-0.8,0-1.4-0.1-1.9
		s-0.2-0.9-0.5-1.2c-0.2-0.3-0.5-0.5-0.9-0.6s-0.9-0.2-1.5-0.2h-1.2v7.8L-255.7,419.5L-255.7,419.5z"/>
	<path class="st0" d="M-233.2,433.7h-4l-3-8.2l-2.8,8.2h-3.9l4.8-13.1l-4.6-12.4h4l2.6,7.6l2.5-7.6h4l-4.5,12.4L-233.2,433.7z"/>
</g>
</svg>
