<?xml version="1.0" encoding="utf-8"?>
<!-- Generator: Adobe Illustrator 19.1.0, SVG Export Plug-In . SVG Version: 6.00 Build 0)  -->
<svg version="1.1" id="Layer_1" xmlns="http://www.w3.org/2000/svg" xmlns:xlink="http://www.w3.org/1999/xlink" x="0px" y="0px"
	 viewBox="-257 395.9 79.7 50" style="enable-background:new -257 395.9 79.7 50;" xml:space="preserve">
<style type="text/css">
	.st0{fill:#40373F;}
</style>
<g>
	<g>
		<path class="st0" d="M-241.8,433.6h-3.9v-25.5h5.3c1.2,0,2.3,0.1,3.1,0.4s1.5,0.7,2,1.3c0.5,0.6,0.9,1.4,1.1,2.3
			c0.2,0.9,0.3,2.1,0.3,3.5s-0.1,2.5-0.3,3.5s-0.6,1.7-1.1,2.3c-0.5,0.6-1.2,1-2,1.3s-1.9,0.4-3.1,0.4h-1.5L-241.8,433.6
			L-241.8,433.6z M-240.6,419.5c0.6,0,1.1-0.1,1.5-0.2s0.7-0.3,0.9-0.6s0.4-0.7,0.5-1.2s0.1-1.1,0.1-1.9s0-1.4-0.1-1.9
			s-0.2-0.9-0.5-1.2c-0.2-0.3-0.5-0.5-0.9-0.6s-0.9-0.2-1.5-0.2h-1.2v7.8L-240.6,419.5L-240.6,419.5z"/>
	</g>
	<g>
		<path class="st0" d="M-209.1,433.6h-3.9v-25.5h5.3c1.2,0,2.3,0.1,3.1,0.4c0.8,0.3,1.5,0.7,2,1.3c0.5,0.6,0.9,1.4,1.1,2.3
			s0.3,2.1,0.3,3.5s-0.1,2.5-0.3,3.5c-0.2,1-0.6,1.7-1.1,2.3c-0.5,0.6-1.2,1-2,1.3c-0.8,0.3-1.9,0.4-3.1,0.4h-1.5v10.5H-209.1z
			 M-207.9,419.5c0.6,0,1.1-0.1,1.5-0.2s0.7-0.3,0.9-0.6c0.2-0.3,0.4-0.7,0.5-1.2s0.1-1.1,0.1-1.9s0-1.4-0.1-1.9s-0.2-0.9-0.5-1.2
			c-0.2-0.3-0.5-0.5-0.9-0.6s-0.9-0.2-1.5-0.2h-1.2v7.8L-207.9,419.5L-207.9,419.5z"/>
		<path class="st0" d="M-185.5,433.6h-4l-3-8.2l-2.8,8.2h-3.9l4.8-13.1l-4.6-12.4h4l2.6,7.5l2.5-7.5h4l-4.5,12.4L-185.5,433.6z"/>
	</g>
	<g>
		<path class="st0" d="M-222.3,416.8v3.6h3.5v0.9h-3.5v3.6h-1v-3.6h-3.5v-0.9h3.5v-3.6H-222.3z"/>
	</g>
</g>
</svg>
