<?xml version="1.0" encoding="utf-8"?>
<!-- Generator: Adobe Illustrator 19.1.0, SVG Export Plug-In . SVG Version: 6.00 Build 0)  -->
<svg version="1.1" id="snapchat-logo" xmlns="http://www.w3.org/2000/svg" xmlns:xlink="http://www.w3.org/1999/xlink" x="0px"
	 y="0px" viewBox="-614 376 50 50" style="enable-background:new -614 376 50 50;" xml:space="preserve">
<style type="text/css">
	.st0{fill:none;}
	.st1{fill:#FFFFFF;}
</style>
<path class="st0" d="M-614,376"/>
<path class="st1" d="M-588.7,425c-0.1,0-0.3,0-0.4,0h0c-0.1,0-0.2,0-0.2,0c-3,0-4.9-1.3-6.7-2.6c-1.3-0.9-2.5-1.7-3.9-2
	c-0.7-0.1-1.4-0.2-2-0.2c-1.2,0-2.1,0.2-2.8,0.3c-0.4,0.1-0.8,0.2-1.1,0.2c-0.3,0-0.6-0.1-0.7-0.5c-0.1-0.4-0.2-0.8-0.3-1.2
	c-0.2-1-0.4-1.6-0.8-1.6c-4.7-0.7-6-1.7-6.3-2.4c0-0.1-0.1-0.2-0.1-0.3c0-0.3,0.2-0.5,0.4-0.6c7.2-1.2,10.5-8.6,10.6-8.9
	c0,0,0,0,0,0c0.4-0.9,0.5-1.7,0.3-2.3c-0.5-1.2-2.1-1.7-3.2-2c-0.3-0.1-0.5-0.2-0.7-0.2c-2.1-0.8-2.3-1.7-2.2-2.2
	c0.1-0.8,1.1-1.3,2-1.3c0.2,0,0.4,0,0.6,0.1c1,0.4,1.8,0.7,2.6,0.7c1,0,1.5-0.4,1.5-0.5c0-0.5-0.1-1-0.1-1.5
	c-0.2-3.4-0.5-7.7,0.6-10.1c3.2-7.3,10.1-7.8,12.1-7.8c0.1,0,0.9,0,0.9,0l0.1,0c2,0,8.9,0.6,12.2,7.8c1.1,2.4,0.8,6.7,0.6,10.1
	l0,0.1c0,0.5-0.1,0.9-0.1,1.4c0.1,0.1,0.5,0.5,1.4,0.5h0c0.7,0,1.5-0.3,2.4-0.7c0.3-0.1,0.6-0.1,0.8-0.1c0.3,0,0.6,0.1,0.9,0.2l0,0
	c0.7,0.3,1.2,0.8,1.2,1.3c0,0.5-0.4,1.3-2.2,2c-0.2,0.1-0.4,0.2-0.7,0.2c-1.1,0.3-2.7,0.9-3.2,2c-0.3,0.6-0.2,1.4,0.3,2.3
	c0,0,0,0,0,0c0.1,0.3,3.4,7.7,10.6,8.9c0.3,0,0.5,0.3,0.4,0.6c0,0.1,0,0.2-0.1,0.3c-0.3,0.7-1.6,1.7-6.3,2.4
	c-0.4,0.1-0.5,0.6-0.8,1.6c-0.1,0.4-0.2,0.8-0.3,1.2c-0.1,0.3-0.3,0.5-0.7,0.5h-0.1c-0.2,0-0.6,0-1.1-0.1c-0.8-0.2-1.7-0.3-2.8-0.3
	c-0.7,0-1.3,0.1-2,0.2c-1.4,0.2-2.6,1.1-3.9,2C-583.8,423.7-585.7,425-588.7,425z"/>
</svg>
