<svg xmlns="http://www.w3.org/2000/svg" id="snapchat-logo" viewBox="-454 256 50 50"><style type="text/css">  
	.st0{fill:#40373F;}
</style><path class="st0" d="M-428.8 304.5c-0.1 0-0.3 0-0.4 0l0 0c-0.1 0-0.2 0-0.2 0 -3 0-4.9-1.3-6.7-2.6 -1.3-0.9-2.5-1.7-3.9-2 -0.7-0.1-1.4-0.2-2-0.2 -1.2 0-2.1 0.2-2.8 0.3 -0.4 0.1-0.8 0.2-1.1 0.2s-0.6-0.1-0.7-0.5c-0.1-0.4-0.2-0.8-0.3-1.2 -0.2-1-0.4-1.6-0.8-1.6 -4.7-0.7-6-1.7-6.3-2.4 0-0.1-0.1-0.2-0.1-0.3 0-0.3 0.2-0.5 0.4-0.6 7.2-1.2 10.5-8.6 10.6-8.9l0 0c0.4-0.9 0.5-1.7 0.3-2.3 -0.5-1.2-2.1-1.7-3.2-2 -0.3-0.1-0.5-0.2-0.7-0.2 -2.1-0.8-2.3-1.7-2.2-2.2 0.1-0.8 1.1-1.3 2-1.3 0.2 0 0.4 0 0.6 0.1 1 0.4 1.8 0.7 2.6 0.7 1 0 1.5-0.4 1.5-0.5 0-0.5-0.1-1-0.1-1.5 -0.2-3.4-0.5-7.7 0.6-10.1 3.2-7.3 10.1-7.8 12.1-7.8 0.1 0 0.9 0 0.9 0h0.1c2 0 8.9 0.6 12.2 7.8 1.1 2.4 0.8 6.7 0.6 10.1v0.1c0 0.5-0.1 0.9-0.1 1.4 0.1 0.1 0.5 0.5 1.4 0.5l0 0c0.7 0 1.5-0.3 2.4-0.7 0.3-0.1 0.6-0.1 0.8-0.1 0.3 0 0.6 0.1 0.9 0.2l0 0c0.7 0.3 1.2 0.8 1.2 1.3s-0.4 1.3-2.2 2c-0.2 0.1-0.4 0.2-0.7 0.2 -1.1 0.3-2.7 0.9-3.2 2 -0.3 0.6-0.2 1.4 0.3 2.3l0 0c0.1 0.3 3.4 7.7 10.6 8.9 0.3 0 0.5 0.3 0.4 0.6 0 0.1 0 0.2-0.1 0.3 -0.3 0.7-1.6 1.7-6.3 2.4 -0.4 0.1-0.5 0.6-0.8 1.6 -0.1 0.4-0.2 0.8-0.3 1.2 -0.1 0.3-0.3 0.5-0.7 0.5h-0.1c-0.2 0-0.6 0-1.1-0.1 -0.8-0.2-1.7-0.3-2.8-0.3 -0.7 0-1.3 0.1-2 0.2 -1.4 0.2-2.6 1.1-3.9 2C-423.9 303.2-425.8 304.5-428.8 304.5z"/></svg>