<svg xmlns="http://www.w3.org/2000/svg" id="snapchat-logo" viewBox="-104 106 50 50"><style type="text/css">.st0{fill:#40373f;}</style><path class="st0" d="M-7s8 109L-78 109c0 0-0.1 0-0.1 0l0 0c0 0-0.8 0-0.8 0 -1.9 0-8.5 0.5-11.6 7.5 -1 2.3-0.8 6.3-0.6 9.5 0 0.4 0 0.8 0.1 1.1 -0.2 0.1-0.5 0.2-0.9 0.2 -0.6 0-1.3-0.2-2.2-0.6 -0.2-0.1-0.5-0.2-0.7-0.2 -1 0-2.1 0.6-2.3 1.6 -0.1 0.7 0.2 1.7 2.3 2.5 0.2 0.1 0.4 0.2 0.7 0.2 0.9 0.3 2.3 0.7 2.6 1.6 0.2 0.4 0.1 1-0.2 1.7 0 0 0 0 0 0 -0.1 0.3-3 6.8-9.4 7.9 -0.5 0.1-0.8 0.5-0.8 1 0 0.1 0 0.3 0.1 0.4 0.5 1.1 2.5 1.9 6.2 2.5 0.1 0.2 0.3 0.8 0.3 1.1 0.1 0.4 0.2 0.7 0.3 1.1 0.1 0.4 0.4 0.8 1.1 0.8 0.3 0 0.7-0.1 1.1-0.1 0.6-0.1 1.4-0.3 2.5-0.3 0.6 0 1.2 0.1 1.8 0.2 1.2 0.2 2.2 0.9 3.4 1.7 1.7 1.2 3.6 2.5 6.4 2.5 0.1 0 0.2 0 0.2 0 0.1 0 0.2 0 0.3 0 2.9 0 4.8-1.3 6.4-2.5 1.2-0.8 2.2-1.5 3.4-1.7 0.6-0.1 1.2-0.2 1.8-0.2 1 0 1.8 0.1 2.5 0.3 0.4 0.1 0.8 0.1 1.1 0.1l0 0h0c0.5 0 0.9-0.3 1.1-0.8 0.1-0.4 0.2-0.7 0.3-1.1 0.1-0.4 0.2-0.9 0.3-1.1 3.7-0.6 5.7-1.4 6.2-2.5 0.1-0.1 0.1-0.3 0.1-0.4 0-0.5-0.3-0.9-0.8-1 -6.4-1.1-9.2-7.6-9.4-7.9 0 0 0 0 0 0 -0.3-0.7-0.4-1.3-0.2-1.7 0.4-0.9 1.7-1.3 2.6-1.6 0.3-0.1 0.5-0.2 0.7-0.2 1.6-0.6 2.4-1.4 2.4-2.3 0-0.7-0.6-1.3-1.4-1.6l0 0c-0.3-0.1-0.6-0.2-1-0.2 -0.2 0-0.6 0-0.9 0.2 -0.8 0.4-1.4 0.5-2 0.6 -0.4 0-0.6-0.1-0.8-0.2 0-0.3 0-0.7 0.1-1l0-0.1c0.2-3.2 0.5-7.1-0.6-9.5C-69.5 109.5-76 109-78 109L-78 109z"/></svg>