<?xml version="1.0" encoding="utf-8"?>
<!-- Generator: Adobe Illustrator 19.1.0, SVG Export Plug-In . SVG Version: 6.00 Build 0)  -->
<svg version="1.1" id="Layer_1" xmlns="http://www.w3.org/2000/svg" xmlns:xlink="http://www.w3.org/1999/xlink" x="0px" y="0px"
	 viewBox="-272 395.9 50 50" style="enable-background:new -272 395.9 50 50;" xml:space="preserve">
<style type="text/css">
	.st0{fill:#40373F;stroke:#40373F;stroke-width:2;stroke-linecap:round;stroke-miterlimit:10;}
	.st1{fill:none;stroke:#40373F;stroke-width:2;stroke-linecap:round;stroke-miterlimit:10;}
</style>
<g>
	<path class="st0" d="M-247,413.2c4.2,0,7.6,3.4,7.6,7.7c0,4.2-3.4,7.6-7.6,7.6c-4.2,0-7.6-3.4-7.6-7.6
		C-254.6,416.7-251.2,413.2-247,413.2"/>
</g>
<line class="st1" x1="-247" y1="437.9" x2="-247" y2="432.8"/>
<line class="st1" x1="-247" y1="409" x2="-247" y2="403.9"/>
<line class="st1" x1="-264" y1="420.9" x2="-258.9" y2="420.9"/>
<line class="st1" x1="-235.1" y1="420.9" x2="-230" y2="420.9"/>
<line class="st1" x1="-259" y1="432.9" x2="-255.4" y2="429.3"/>
<line class="st1" x1="-238.6" y1="412.5" x2="-235" y2="408.9"/>
<line class="st1" x1="-259" y1="408.9" x2="-255.4" y2="412.5"/>
<line class="st1" x1="-238.6" y1="429.3" x2="-235" y2="432.9"/>
</svg>
