<?xml version="1.0" encoding="utf-8"?>
<!-- Generator: Adobe Illustrator 19.1.0, SVG Export Plug-In . SVG Version: 6.00 Build 0)  -->
<svg version="1.1" id="Слой_1" xmlns="http://www.w3.org/2000/svg" xmlns:xlink="http://www.w3.org/1999/xlink" x="0px" y="0px"
	 viewBox="-272 395.9 50 50" style="enable-background:new -272 395.9 50 50;" xml:space="preserve">
<style type="text/css">
	.st0{fill:#40373F;}
</style>
<path class="st0" d="M-227.6,413l-2.5-2.5c-0.3-0.3-0.7-0.3-1.1-0.1c-0.7,0.6-1.5,0.9-2.4,0.9c-2.1,0-3.8-1.7-3.8-3.8
	c0-0.9,0.3-1.7,0.9-2.4c0.3-0.3,0.2-0.8-0.1-1.1l-2.5-2.5c-0.8-0.8-2.4-0.8-3.2,0l-4.3,4.3l1.1,1.1c0.3,0.3,0.3,0.8,0,1.1
	c-0.2,0.2-0.4,0.2-0.6,0.2s-0.4-0.1-0.6-0.2l-1.1-1.1l-18.7,18.6c-0.4,0.4-0.7,1-0.7,1.6c0,0.6,0.2,1.2,0.7,1.6l2.5,2.5
	c0.3,0.3,0.7,0.3,1.1,0.1c0.8-0.6,1.6-0.9,2.5-0.9c2.1,0,3.8,1.7,3.8,3.8c0,0.9-0.3,1.8-0.9,2.4c-0.3,0.3-0.3,0.8,0,1.1l2.5,2.5
	c0.4,0.4,1,0.7,1.6,0.7s1.2-0.2,1.6-0.7l18.7-18.7l-1.1-1.1c-0.3-0.3-0.3-0.8,0-1.1c0.3-0.3,0.8-0.3,1.1,0l1.1,1.1l4.2-4.2
	c0.4-0.4,0.7-0.9,0.8-1.5C-227,414-227.2,413.4-227.6,413z M-242,411.5c-0.2,0.2-0.4,0.2-0.6,0.2c-0.2,0-0.4-0.1-0.6-0.2l-1.1-1.1
	c-0.3-0.3-0.3-0.8,0-1.1c0.3-0.3,0.8-0.3,1.1,0l1.1,1.1C-241.7,410.6-241.7,411.2-242,411.5z M-238.7,414.8
	c-0.2,0.2-0.4,0.2-0.6,0.2s-0.4-0.1-0.6-0.2l-1.1-1.1c-0.3-0.3-0.3-0.8,0-1.1c0.3-0.3,0.8-0.3,1.1,0l1.1,1.1
	C-238.4,414-238.4,414.5-238.7,414.8z M-235.3,418.2c-0.2,0.2-0.4,0.2-0.6,0.2c-0.2,0-0.4-0.1-0.6-0.2l-1.1-1.1
	c-0.3-0.3-0.3-0.8,0-1.1s0.8-0.3,1.1,0l1.1,1.1C-235,417.4-235,417.9-235.3,418.2z"/>
</svg>
