<svg xmlns="http://www.w3.org/2000/svg" id="yt-logo" viewBox="0 0 26 26"><style>.a{fill:#40373f;}</style><path class="a" d="M6.3 0h1.5L8.8 3.9h0.1l0.9-3.9h1.5L9.6 5.7v4H8.1v-3.8L6.3 0z" /><path class="a" d="M11.3 4.2c0-0.6 0.2-1 0.5-1.3 0.4-0.3 0.8-0.5 1.4-0.5 0.6 0 1 0.2 1.3 0.5C14.9 3.2 15.1 3.7 15.1 4.2v3.7c0 0.6-0.2 1.1-0.5 1.4 -0.3 0.3-0.8 0.5-1.4 0.5 -0.6 0-1-0.2-1.4-0.5 -0.3-0.4-0.5-0.8-0.5-1.4V4.2zM12.6 8c0 0.2 0 0.3 0.1 0.5 0.1 0.1 0.2 0.2 0.4 0.2 0.2 0 0.3-0.1 0.4-0.2 0.1-0.1 0.2-0.3 0.2-0.4V4.1c0-0.2-0.1-0.3-0.2-0.4 -0.1-0.1-0.2-0.1-0.4-0.1 -0.2 0-0.3 0.1-0.4 0.1 -0.1 0.1-0.2 0.2-0.2 0.4V8z" /><path class="a" d="M20 2.6v7.1h-1.3V8.9c-0.2 0.3-0.5 0.5-0.8 0.7 -0.3 0.2-0.5 0.2-0.8 0.2 -0.3 0-0.5-0.1-0.7-0.3s-0.2-0.5-0.2-1v-6h1.3v5.5c0 0.2 0 0.3 0.1 0.4 0.1 0.1 0.1 0.1 0.3 0.1 0.1 0 0.2 0 0.4-0.1 0.2-0.1 0.3-0.2 0.4-0.4V2.6H20z"/><path class="a" d="M20.2 17.3c-0.2 0-0.3 0-0.3 0.1 0 0.1-0.1 0.2-0.1 0.6v0.6h0.9v-0.6c0-0.3-0.1-0.5-0.1-0.6C20.4 17.3 20.3 17.3 20.2 17.3z" /><path class="a" d="M15.1 17.3c-0.1 0-0.1 0.1-0.2 0.1v4.3c0.1 0.1 0.2 0.1 0.2 0.2 0.1 0 0.2 0.1 0.3 0.1 0.2 0 0.2-0.1 0.2-0.1 0-0.1 0.1-0.2 0.1-0.4v-3.7c0-0.2 0-0.4-0.1-0.5C15.5 17.3 15.3 17.2 15.1 17.3z" /><path class="a red" d="M23.8 14.4c0-1.7-1.4-3.1-3.2-3.1 -2.5-0.1-5-0.1-7.6-0.1 -2.6 0-5.1 0-7.6 0.1 -1.7 0-3.2 1.4-3.2 3.1 -0.1 1.4-0.2 2.7-0.1 4.1 0 1.4 0 2.7 0.1 4.1 0 1.7 1.4 3.1 3.2 3.1 2.5 0.1 5 0.1 7.6 0.1 2.6 0 5.1 0 7.6-0.1 1.7 0 3.2-1.4 3.2-3.1 0.1-1.4 0.2-2.7 0.1-4.1C23.9 17.1 23.9 15.8 23.8 14.4zM7 23.2c0 0.1-0.1 0.2-0.1 0.2H5.3c-0.1 0-0.1-0.1-0.1-0.1v-8.1H3.8c-0.1 0-0.1-0.1-0.1-0.1v-1.4c0-0.1 0.1-0.1 0.2-0.1h4.6c0.1 0 0.2 0.1 0.2 0.2v1.4c0 0.1-0.1 0.2-0.1 0.2H7V23.2zM12.3 23.2c0 0.1-0.1 0.2-0.1 0.2h-1.3c-0.1 0-0.1-0.1-0.1-0.1V22.8c-0.2 0.2-0.4 0.3-0.5 0.4 -0.3 0.2-0.6 0.2-0.8 0.2 -0.4 0-0.6-0.1-0.8-0.4 -0.2-0.2-0.3-0.6-0.3-1v-6c0-0.1 0.1-0.1 0.2-0.1h1.3c0.1 0 0.2 0.1 0.2 0.2v5.5c0 0.2 0 0.3 0.1 0.3 0 0 0 0.1 0.1 0.1 0 0 0.1 0 0.3-0.1 0.1-0.1 0.2-0.2 0.3-0.3v-5.4c0-0.1 0.1-0.1 0.2-0.1h1.3c0.1 0 0.2 0.1 0.2 0.2V23.2zM17.4 21.7c0 0.5-0.1 1-0.3 1.3 -0.2 0.3-0.6 0.5-1 0.5 -0.3 0-0.5-0.1-0.8-0.2 -0.1-0.1-0.2-0.1-0.3-0.2v0.2c0 0.1-0.1 0.2-0.1 0.2h-1.3c-0.1 0-0.1-0.1-0.1-0.1V13.5c0-0.1 0.1-0.1 0.2-0.1h1.3c0.1 0 0.2 0.1 0.2 0.2v2.7c0.1-0.1 0.2-0.2 0.3-0.3 0.2-0.1 0.5-0.2 0.7-0.2 0.5 0 0.8 0.2 1.1 0.5 0.2 0.3 0.4 0.8 0.4 1.4V21.7zM22.3 19.8c0 0.1-0.1 0.2-0.1 0.2h-2.4v1.2c0 0.4 0.1 0.6 0.1 0.7 0 0.1 0.1 0.1 0.3 0.1 0.2 0 0.3 0 0.3-0.1 0 0 0.1-0.2 0.1-0.7v-0.5c0-0.1 0.1-0.1 0.2-0.1h1.4c0.1 0 0.2 0.1 0.2 0.2v0.5c0 0.8-0.2 1.4-0.5 1.8 -0.4 0.4-0.9 0.6-1.6 0.6 -0.6 0-1.1-0.2-1.5-0.6 -0.4-0.4-0.5-1-0.5-1.7v-3.2c0-0.7 0.2-1.2 0.6-1.6 0.4-0.4 0.9-0.6 1.6-0.6 0.6 0 1.2 0.2 1.5 0.6 0.4 0.4 0.5 0.9 0.5 1.7V19.8z" /></svg>
