<!-- Generator: Adobe Illustrator 15.0.0, SVG Export Plug-In . SVG Version: 6.00 Build 0)  -->
<!DOCTYPE svg PUBLIC "-//W3C//DTD SVG 1.1//EN" "http://www.w3.org/Graphics/SVG/1.1/DTD/svg11.dtd"[]>
<svg version="1.1" id="Слой_1" xmlns="http://www.w3.org/2000/svg" xmlns:xlink="http://www.w3.org/1999/xlink" x="0px" y="0px" width="50px" height="50px" viewBox="0 0 50 50" enable-background="new 0 0 50 50" xml:space="preserve" fill="#FFFFFF">
<path d="M35,8h2c0.6,0,1-0.4,1-1V1c0-0.6-0.4-1-1-1h-2c-0.6,0-1,0.4-1,1v6C34,7.6,34.4,8,35,8z" fill="#FFFFFF" />
<path d="M11,8h2c0.6,0,1-0.4,1-1V1c0-0.6-0.4-1-1-1h-2c-0.6,0-1,0.4-1,1v6C10,7.6,10.4,8,11,8z" fill="#FFFFFF" />
<path d="M48,6c0-1.159-0.841-2-2-2h-6v3c0,1.71-1.29,3-3,3h-2c-1.71,0-3-1.29-3-3V4H16v3c0,1.71-1.29,3-3,3h-2c-1.71,0-3-1.29-3-3V4  H2C0.841,4,0,4.841,0,6v8h48V6z" fill="#FFFFFF" />
<path d="M50,31l-1.414-1.414L48,29V16H0v32c0,1.159,0.841,2,2,2h44c1.159,0,2-0.841,2-2V33l0.586-0.586L50,31z M23,31  c0-0.553,0.448-1,1-1h19.344l-1.962-1.963l0,0l-3.22-3.22c-0.391-0.391-0.391-1.024,0-1.414c0.195-0.195,0.451-0.293,0.707-0.293  s0.512,0.098,0.707,0.293L47.172,31l-7.598,7.598c-0.195,0.195-0.451,0.293-0.707,0.293s-0.512-0.098-0.707-0.293  c-0.391-0.391-0.391-1.023,0-1.414L42.344,33l1-1H24C23.448,32,23,31.553,23,31z" fill="#FFFFFF" />
</svg>