<svg xmlns="http://www.w3.org/2000/svg" id="insta-logo" viewBox="0 0 50 50"><style type="text/css">  .st0{fill:#40373f;}</style><path class="st0" d="M25 10c-8.3 0-15 6.7-15 15 0 8.3 6.7 15 15 15 8.3 0 15-6.7 15-15C40 16.7 33.3 10 25 10zM25 35c-5.5 0-10-4.5-10-10 0-5.5 4.5-10 10-10 5.5 0 10 4.5 10 10C35 30.5 30.5 35 25 35z"/><path class="st0" d="M40 0H10C4.5 0 0 4.5 0 10v30c0 5.5 4.5 10 10 10h30c5.5 0 10-4.5 10-10V10C50 4.5 45.5 0 40 0zM44 39.8C44 42.1 42.1 44 39.8 44H10.2C7.9 44 6 42.1 6 39.8V17h4C12.9 11.7 18.5 8 25 8c6.5 0 12.1 3.7 15 9H44V39.8zM45 10.5c0 0.8-0.7 1.5-1.5 1.5h-3c-0.8 0-1.5-0.7-1.5-1.5v-3C39 6.7 39.7 6 40.5 6h3C44.3 6 45 6.7 45 7.5V10.5z"/></svg>