<?xml version="1.0" encoding="utf-8"?>
<!-- Generator: Adobe Illustrator 17.0.0, SVG Export Plug-In . SVG Version: 6.00 Build 0)  -->
<!DOCTYPE svg PUBLIC "-//W3C//DTD SVG 1.1//EN" "http://www.w3.org/Graphics/SVG/1.1/DTD/svg11.dtd">
<svg version="1.1" id="Layer_1" xmlns="http://www.w3.org/2000/svg" xmlns:xlink="http://www.w3.org/1999/xlink" x="0px" y="0px"
	 width="50px" height="50px" viewBox="0 0 50 50" enable-background="new 0 0 50 50" xml:space="preserve">
<rect x="0" fill="none" width="50" height="50"/>
<g>
	<path d="M50,12.436c-3.051,2.655-10.144,8.828-15.115,13.155L50,37.486V12.436z"/>
	<path d="M21.666,28.642C23.072,29.867,24.466,30,25,30s1.928-0.133,3.334-1.358C29.752,27.406,48.046,11.487,50,9.786V7H0v2.781
		C3.012,12.403,20.299,27.45,21.666,28.642z"/>
	<path d="M33.349,26.928c-1.937,1.686-3.347,2.913-3.701,3.222C27.731,31.819,25.759,32,25,32s-2.731-0.181-4.648-1.851
		c-0.351-0.306-1.76-1.533-3.701-3.223L0,40.075V43h50v-2.969L33.349,26.928z"/>
	<path d="M15.115,25.59C10.214,21.323,3.231,15.244,0,12.431v25.094L15.115,25.59z"/>
</g>
</svg>
