<!-- Generator: Adobe Illustrator 18.1.1, SVG Export Plug-In . SVG Version: 6.00 Build 0)  -->
<svg version="1.1" id="Layer_1" xmlns="http://www.w3.org/2000/svg" xmlns:xlink="http://www.w3.org/1999/xlink" x="0px" y="0px" viewBox="0 0 50 50" enable-background="new 0 0 50 50" xml:space="preserve" fill="#40373F">
<path fill="none" stroke="#40373F" stroke-width="2" stroke-linecap="round" stroke-linejoin="round" stroke-miterlimit="10" d="  M48.5,15.8l-3.1-3.1c-1,0.8-2.2,1.3-3.6,1.3c-3.2,0-5.7-2.6-5.7-5.7c0-1.4,0.5-2.6,1.3-3.6l-3.1-3.1c-0.7-0.7-1.9-0.7-2.6,0  L1.5,31.6c-0.7,0.7-0.7,1.9,0,2.6l3.1,3.1c1-0.8,2.3-1.4,3.7-1.4c3.2,0,5.7,2.6,5.7,5.7c0,1.4-0.5,2.7-1.4,3.7l3.1,3.1  c0.7,0.7,1.9,0.7,2.6,0l30.1-30.1C49.2,17.7,49.2,16.5,48.5,15.8z" />
<g fill="#40373F">
	<g fill="#40373F">
		
			<line fill="none" stroke="#40373F" stroke-width="2" stroke-linecap="round" stroke-linejoin="round" x1="25.6" y1="7.6" x2="26.3" y2="8.3" />
		
			<line fill="none" stroke="#40373F" stroke-width="2" stroke-linecap="round" stroke-linejoin="round" stroke-dasharray="1.9853,3.9706" x1="29.1" y1="11.1" x2="40.3" y2="22.3" />
		
			<line fill="none" stroke="#40373F" stroke-width="2" stroke-linecap="round" stroke-linejoin="round" x1="41.7" y1="23.7" x2="42.4" y2="24.4" />
	</g>
</g>
<g fill="#40373F">
	<path d="M24.8,24l-0.1,0.9l-0.2,1.3l1.1,0.7l0.8,0.4l-0.9,0.2l-1.3,0.3L24,28.9l-0.2,0.9L23.3,29l-0.6-1.1L21.4,28l-0.9,0.1   l0.6-0.6l0.9-1l-0.5-1.2l-0.3-0.8l0.8,0.4l1.2,0.5l1-0.9L24.8,24 M27.4,19l-4.6,4l-5.5-2.5l2.4,5.6l-4.1,4.5l6-0.5l3,5.3l1.3-5.9   l5.9-1.2l-5.2-3.1L27.4,19L27.4,19z" fill="#40373F" />
</g>
</svg>