<svg xmlns="http://www.w3.org/2000/svg" viewBox="0 0 741 505.6"><style type="text/css">  
	.tri{fill:#e84253;}
	.text{fill:#FFFFFF;}
</style><polygon class="tri" points="119.3 505.6 0 0 741 102.6 "/>
<g class="text-wrap"><path class="text" d="M74.9 131.4h34.9V142H98v62.7H86.7V142H74.9V131.4z"/><path class="text" d="M126.9 131.4v29.9h11.3v-29.9h11.3v73.3h-11.3v-32.8h-11.3v32.8h-11.2v-73.3H126.9z"/><path class="text" d="M157.6 131.4h29.5V142h-18.2v19.2H182v10.6h-13.1v21.9h18.2v11h-29.5V131.4z"/><path class="text" d="M223.5 184.5c0.4 7.4 2.7 10.9 7.5 10.9 4.2 0 7-2.8 7-7.1 0-6.1-4.2-9.9-10.2-15.9 -8.2-8.2-14-14.2-14-23.9 0-10.6 8-18.4 17.6-18.4 9.3 0 16.1 6.8 16.9 18.2l-11 1.6c-0.4-6.3-2.1-9.1-6.2-9.1 -3.5 0-6 2.6-6 6.8 0 6.6 4.9 11.1 11.3 17.3 7.8 7.6 12.7 13.1 12.7 23.3 0 10.8-7.5 18.3-17.6 18.3 -11 0-18.2-7.4-18.7-20.3L223.5 184.5z"/><path class="text" d="M251.4 131.4h34.9V142h-11.8v62.7h-11.3V142h-11.7V131.4z"/><path class="text" d="M304.2 131.4v56.8c0 4.5 2.6 7 6 7 3.4 0 5.7-2.5 5.7-7v-56.8h11.5v54.9c0 13-6.3 20.1-17.3 20.1 -11.2 0-17.5-7-17.5-20.4v-54.5H304.2z"/><path class="text" d="M335.3 131.4h16.1c12.6 0 18.3 6.5 18.3 20.2v32.7c0 14-5.2 20.5-17.8 20.5h-16.6V131.4zM352.2 194c4.3 0 5.9-2.7 5.9-7.7v-35.3c0-6-2.8-8.7-9-8.7h-2.6V194H352.2z"/><path class="text" d="M376.8 131.4h29.5V142h-18.2v19.2h13.1v10.6h-13.1v21.9h18.2v11h-29.5V131.4z"/><path class="text" d="M413.7 131.4h10.2l14.3 43.8c0.2 0.6 1 3.2 2.2 7.8 -0.9-5.2-1.2-8.6-1.2-9.9v-41.8h10.6v73.3h-10.6l-13.8-40.5c-0.6-1.9-1.6-4.5-2.4-8 0.8 5.2 1.2 8.6 1.2 10.2v38.3h-10.5V131.4z"/><path class="text" d="M455.2 131.4h34.9V142h-11.8v62.7h-11.3V142h-11.7V131.4z"/><path class="text" d="M502.9 184.5c0.4 7.4 2.7 10.9 7.5 10.9 4.2 0 7-2.8 7-7.1 0-6.1-4.2-9.9-10.2-15.9 -8.2-8.2-14-14.2-14-23.9 0-10.6 8-18.4 17.6-18.4 9.3 0 16.1 6.8 16.9 18.2l-11 1.6c-0.4-6.3-2.1-9.1-6.2-9.1 -3.5 0-6 2.6-6 6.8 0 6.6 4.9 11.1 11.3 17.3 7.8 7.6 12.7 13.1 12.7 23.3 0 10.8-7.5 18.3-17.6 18.3 -11 0-18.2-7.4-18.7-20.3L502.9 184.5z"/><path class="text" d="M533.2 130.6H544v11.5l-5.8 13h-5l3.7-13h-3.7V130.6z"/><path class="text" d="M124.2 308.5h6.7l5.5 33.2h-5.3l-1-7.2h-5.2l-1.1 7.2h-5L124.2 308.5zM129.4 329.8l-1.7-13.9h-0.3l-1.8 13.9H129.4z"/><path class="text" d="M136.9 308.5h15.8v4.8h-5.4v28.4h-5.1v-28.4h-5.3V308.5z"/><path class="text" d="M173.2 308.5v25.7c0 2 1.2 3.2 2.7 3.2 1.6 0 2.6-1.1 2.6-3.2v-25.7h5.2v24.8c0 5.9-2.9 9.1-7.9 9.1 -5.1 0-7.9-3.2-7.9-9.2v-24.7H173.2z"/><path class="text" d="M192.2 308.5l2.3 19.7c0.2 1.6 0.3 3.3 0.3 5.2 0 0.2 0 0.4 0 0.7 0.2-3.4 0.3-5.6 0.4-6.5l2.5-19h4.4l2.7 19.7c0.2 1.6 0.3 3.6 0.3 5.9 0.1-2.8 0.2-4.9 0.4-6.5l2.1-19h4.8l-5.2 33.2h-4.3l-2.8-19.3c-0.2-1.3-0.3-3.3-0.3-5.9 -0.2 3.6-0.3 5.8-0.4 6.5l-2.7 18.6h-4.3l-5.2-33.2H192.2z"/><path class="text" d="M216.6 308.5h13.4v4.8h-8.2v8.7h5.9v4.8h-5.9v9.9h8.2v5h-13.4V308.5z"/><path class="text" d="M113.3 220.3v56.8c0 4.5 2.6 7 6 7 3.4 0 5.7-2.5 5.7-7v-56.8h11.5v54.9c0 13-6.3 20.1-17.3 20.1 -11.2 0-17.5-7-17.5-20.4v-54.5H113.3z"/><path class="text" d="M145.3 220.3h10.2l14.3 43.8c0.2 0.6 1 3.2 2.2 7.8 -0.9-5.2-1.2-8.6-1.2-9.9v-41.8h10.6v73.3h-10.6l-13.8-40.5c-0.6-1.9-1.6-4.5-2.4-8 0.8 5.2 1.2 8.6 1.2 10.2v38.3h-10.5V220.3z"/><path class="text" d="M190.6 220.3h11.5v73.3h-11.5V220.3z"/><path class="text" d="M228.5 218.8c10.3 0 17 7 17 18.8v37.6c0 13-6.4 20.1-17.5 20.1 -11.2 0-17.3-7-17.3-20.4v-37.6C210.7 225.8 217.3 218.8 228.5 218.8zM233.9 236.5c0-5.1-2-7.6-5.8-7.6 -3.8 0-5.8 2.5-5.8 7.6v40.9c0 5.1 2 7.7 5.8 7.7 3.8 0 5.8-2.6 5.8-7.7V236.5z"/><path class="text" d="M253.6 220.3h10.2l14.3 43.8c0.2 0.6 1 3.2 2.2 7.8 -0.9-5.2-1.2-8.6-1.2-9.9v-41.8h10.6v73.3h-10.6l-13.8-40.5c-0.6-1.9-1.6-4.5-2.4-8 0.8 5.2 1.2 8.6 1.2 10.2v38.3h-10.5V220.3z"/></g></svg>