<?xml version="1.0" encoding="utf-8"?>
<!-- Generator: Adobe Illustrator 19.1.0, SVG Export Plug-In . SVG Version: 6.00 Build 0)  -->
<svg version="1.1" id="Layer_2" xmlns="http://www.w3.org/2000/svg" xmlns:xlink="http://www.w3.org/1999/xlink" x="0px" y="0px"
	 viewBox="-204 399 186.9 44.9" style="enable-background:new -204 399 186.9 44.9;" xml:space="preserve">
<style type="text/css">
	.st0{fill:#524850;}
</style>
<g>
	<g>
		<path class="st0" d="M-204,443.8l0.1-44.8h16.4c2.1,0,4.2,0.4,6,1.2c1.9,0.8,3.5,1.9,4.9,3.2c1.4,1.3,2.5,2.9,3.3,4.7
			c0.8,1.8,1.2,3.7,1.2,5.8s-0.4,4.1-1.2,6c-0.8,1.8-1.9,3.5-3.4,4.8c-1.4,1.4-3.1,2.4-5,3.2c-1.9,0.8-3.9,1.1-6,1.1H-198l0.1-24.2
			h2.6v21.7h7.8c1.8,0,3.5-0.3,5.1-1c1.6-0.6,3-1.5,4.2-2.7c1.2-1.1,2.1-2.5,2.8-4c0.7-1.5,1-3.2,1-5c0-1.6-0.3-3.2-1-4.7
			c-0.7-1.5-1.6-2.8-2.8-3.9s-2.6-2-4.1-2.7c-1.6-0.7-3.3-1-5.1-1h-13.8l-0.2,42.3H-204z"/>
	</g>
	<polygon class="st0" points="-122.7,428.5 -122.7,443.5 -113.9,443.6 -113.9,428.6 -97.9,399.3 -100.8,399.3 -116.4,427.9 
		-116.5,441 -120.2,441 -120.1,427.9 -135.7,399.2 -138.6,399.2 	"/>
	<polygon class="st0" points="-94.5,400.5 -94.5,400.7 -94.5,401.8 -72,401.8 -98.5,443.5 -68.4,443.5 -68.3,435.4 -85.1,435.4 
		-85.1,438 -70.9,438 -70.9,440.9 -93.8,440.9 -67.2,399.3 -94.5,399.2 	"/>
	<g>
		<path class="st0" d="M-166.9,443.9l0.1-44.8h14.1c2.1,0,4.2,0.4,6.1,1.2s3.5,1.9,4.9,3.3c1.4,1.4,2.5,3,3.3,4.9
			c0.8,1.9,1.2,3.9,1.2,6c0,2-0.4,3.9-1.1,5.7c-0.7,1.8-1.7,3.4-3,4.7c-1.3,1.4-2.8,2.5-4.5,3.4c-1.2,0.6-2.5,1.1-3.8,1.4l-0.6,0.1
			l11.5,13.8h-10.1l-13.2-16.2h3.1l11.2,13.5h3.9l-11-13.4h2.5c1.7,0,3.2-0.4,4.7-1c1.6-0.7,3-1.6,4.2-2.8c1.2-1.2,2.1-2.6,2.8-4.1
			c0.7-1.6,1-3.3,1-5.1c0-1.8-0.3-3.5-1-5c-0.7-1.6-1.6-2.9-2.8-4c-1.2-1.1-2.5-2.1-4.1-2.7c-1.6-0.7-3.3-1-5.1-1h-11.5l-0.1,42.3
			L-166.9,443.9z"/>
	</g>
	<polygon class="st0" points="-62.3,443.8 -59.7,443.8 -59.6,401.9 -58.1,401.9 -40.7,443.9 -38.9,443.9 -21.3,401.9 -19.7,401.9 
		-19.8,441.3 -22.7,441.3 -22.7,419.9 -25.2,419.9 -25.3,443.9 -17.2,443.9 -17.1,399.4 -23,399.4 -39.7,439.2 -56.1,399.3 
		-62.2,399.3 	"/>
</g>
</svg>
