<svg xmlns="http://www.w3.org/2000/svg" viewBox="0 0 596.1 594.9"><style type="text/css">  
	.st0{filter:url(#Adobe_OpacityMaskFilter);}
	.st1{fill:url(#SVGID_2_);}
	.st2{mask:url(#SVGID_1_);}
	.st3{fill:#FFFFFF;}
</style><defs><filter filterUnits="userSpaceOnUse" x="2.5" y="-33.7" width="543.1" height="627.1"><feColorMatrix type="matrix" values="1 0 0 0 0  0 1 0 0 0  0 0 1 0 0  0 0 0 1 0"/></filter></defs><mask maskUnits="userSpaceOnUse" x="2.5" y="-33.7" width="543.1" height="627.1"><g class="st0"><radialGradient cx="241.7" cy="371.4" r="443.5" gradientTransform="matrix(1.7626 0 0 1.5396 -424.7626 20.0324)" gradientUnits="userSpaceOnUse"><stop offset="0" stop-color="#FFF"/><stop offset="4.532814e-003" stop-color="#FAFAFA"/><stop offset="4.775882e-002" stop-color="#CBCBCB"/><stop offset="9.544641e-002" stop-color="#A0A0A0"/><stop offset="0.1473" stop-color="#797979"/><stop offset="0.2034" stop-color="#585858"/><stop offset="0.2651" stop-color="#3D3D3D"/><stop offset="0.3345" stop-color="#262626"/><stop offset="0.4148" stop-color="#151515"/><stop offset="0.5132" stop-color="#090909"/><stop offset="0.6488" stop-color="#020202"/><stop offset="1" stop-color="#000"/></radialGradient><rect x="-729" y="-133.1" class="st1" width="1460.4" height="1450"/></g></mask><g class="st2"><polygon class="st3" points="397.8 415.9 375.2 455.1 376.5 457.4 400.5 415.9 "/><polygon class="st3" points="391.5 415.9 352.6 415.9 353.9 418.3 390.1 418.3 "/><polygon class="st3" points="427.7 400.3 425 400.3 384.3 470.8 385.6 473.1 "/><polygon class="st3" points="357.1 580.6 358.4 582.9 376.5 582.9 377.9 580.6 "/><polygon class="st3" points="373.3 431.6 370.7 431.6 366.2 439.5 367.5 441.8 "/><polygon class="st3" points="405 408.1 348.1 408.1 349.4 410.4 403.7 410.4 "/><polygon class="st3" points="386.9 423.8 384.3 423.8 370.7 447.3 372 449.6 "/><polygon class="st3" points="429.3 319.1 426.6 319.1 432.5 329.3 433.8 326.9 "/><polygon class="st3" points="414.1 408.1 411.4 408.1 379.7 463 381.1 465.3 "/><polygon class="st3" points="429.5 455.1 428.2 457.4 467.1 457.4 465.7 455.1 "/><polygon class="st3" points="414.6 465.3 471.6 465.3 470.3 463 415.9 463 "/><polygon class="st3" points="446.3 441.8 449 441.8 453.5 433.9 452.2 431.6 "/><polygon class="st3" points="432.7 449.6 435.4 449.6 449 426.1 447.6 423.8 "/><polygon class="st3" points="392 473.1 394.6 473.1 435.4 402.6 434 400.3 "/><polygon class="st3" points="408.5 319.1 432.5 360.6 433.8 358.3 411.2 319.1 "/><polygon class="st3" points="441.8 449.6 462.5 449.6 461.2 447.3 443.1 447.3 "/><polygon class="st3" points="456.7 439.5 455.3 441.8 458 441.8 456.7 439.5 "/><polygon class="st3" points="372 502.2 342.2 502.2 343.5 504.5 370.7 504.5 "/><polygon class="st3" points="363 517.9 363 517.9 360.3 517.9 361.6 520.2 "/><polygon class="st3" points="358.4 525.7 349.4 510 346.7 510 357.1 528 "/><polygon class="st3" points="419.1 457.4 421.8 457.4 444.4 418.3 443.1 415.9 "/><polygon class="st3" points="363 433.9 364.3 431.6 361.6 431.6 363 433.9 "/><polygon class="st3" points="333.1 502.2 352.6 535.8 353.9 533.5 335.8 502.2 "/><polygon class="st3" points="390.1 575 391.5 572.7 352.6 572.7 353.9 575 "/><polygon class="st3" points="405 564.9 348.1 564.9 349.4 567.2 403.7 567.2 "/><polygon class="st3" points="418.6 557.1 343.5 557.1 344.9 559.4 417.3 559.4 "/><polygon class="st3" points="367.5 510 355.8 510 357.1 512.3 366.2 512.3 "/><polygon class="st3" points="384 554.3 382.7 552 381.3 554.3 384 554.3 "/><polygon class="st3" points="382.7 520.6 363.2 554.3 365.9 554.3 384 522.9 "/><polygon class="st3" points="382.7 504.9 354.2 554.3 356.8 554.3 384 507.3 "/><polygon class="st3" points="377.9 423.8 357.1 423.8 358.4 426.1 376.5 426.1 "/><polygon class="st3" points="349.4 541.4 322.2 494.3 319.6 494.3 348.1 543.7 "/><polygon class="st3" points="382.7 489.3 345.1 554.3 347.8 554.3 384 491.6 "/><polygon class="st3" points="381.1 486.5 315 486.5 316.4 488.8 379.7 488.8 "/><polygon class="st3" points="376.5 494.3 328.6 494.3 329.9 496.6 375.2 496.6 "/><polygon class="st3" points="417.5 319.1 432.5 344.9 433.8 342.6 420.2 319.1 "/><polygon class="st3" points="444.4 408.1 441.8 408.1 479.3 473.1 480.6 470.8 "/><polygon class="st3" points="437 509.6 456.4 475.9 453.7 475.9 435.6 507.2 "/><polygon class="st3" points="437 525.2 465.5 475.9 462.8 475.9 435.6 522.9 "/><polygon class="st3" points="503.3 431.6 491.6 431.6 492.9 433.9 501.9 433.9 "/><polygon class="st3" points="470.3 488.8 497.4 535.8 500.1 535.8 471.6 486.5 "/><polygon class="st3" points="437 493.9 447.4 475.9 444.7 475.9 435.6 491.6 "/><polygon class="st3" points="497.4 441.8 498.7 439.5 498.7 439.5 496.1 439.5 "/><polygon class="st3" points="438.6 543.7 504.6 543.7 503.3 541.4 439.9 541.4 "/><polygon class="st3" points="435.6 475.9 437 478.2 438.3 475.9 435.6 475.9 "/><polygon class="st3" points="435.6 538.6 437 540.9 474.5 475.9 471.9 475.9 "/><polygon class="st3" points="521.4 400.3 437.2 400.3 438.6 402.6 520 402.6 "/><polygon class="st3" points="516.9 408.1 450.8 408.1 452.2 410.4 515.5 410.4 "/><polygon class="st3" points="485.2 463 458 415.9 455.3 415.9 483.8 465.3 "/><polygon class="st3" points="494.2 447.3 485.2 431.6 482.5 431.6 492.9 449.6 "/><polygon class="st3" points="435.4 392.4 434 394.7 518.2 394.7 516.8 392.4 "/><polygon class="st3" points="512.3 415.9 464.4 415.9 465.7 418.3 511 418.3 "/><polygon class="st3" points="468.9 423.8 488.4 457.4 489.7 455.1 471.6 423.8 "/><polygon class="st3" points="507.8 423.8 478 423.8 479.3 426.1 506.5 426.1 "/><polygon class="st3" points="474.8 470.8 402.4 470.8 401 473.1 476.1 473.1 "/><polygon class="st3" points="433.8 546.4 393 475.9 390.4 475.9 432.5 548.8 "/><polygon class="st3" points="429.3 554.3 387.2 481.4 385.9 483.7 426.6 554.3 "/><polygon class="st3" points="402.1 475.9 399.4 475.9 432.5 533.1 433.8 530.8 "/><polygon class="st3" points="387.2 497.1 385.9 499.4 417.5 554.3 420.2 554.3 "/><polygon class="st3" points="390.4 554.3 393 554.3 387.2 544.1 385.9 546.4 "/><polygon class="st3" points="443.1 535.8 491 535.8 489.7 533.5 444.4 533.5 "/><polygon class="st3" points="411.2 554.3 387.2 512.8 385.9 515.1 408.5 554.3 "/><polygon class="st3" points="411.2 475.9 408.5 475.9 432.5 517.4 433.8 515.1 "/><polygon class="st3" points="402.1 554.3 387.2 528.5 385.9 530.8 399.4 554.3 "/><polygon class="st3" points="486.5 528 467.1 494.3 465.7 496.6 483.8 528 "/><polygon class="st3" points="456.7 512.3 456.7 512.3 459.3 512.3 458 510 "/><polygon class="st3" points="461.2 504.5 470.3 520.2 472.9 520.2 462.5 502.2 "/><polygon class="st3" points="447.6 528 477.4 528 476.1 525.7 449 525.7 "/><polygon class="st3" points="420.2 475.9 417.5 475.9 432.5 501.7 433.8 499.4 "/><polygon class="st3" points="429.3 475.9 426.6 475.9 432.5 486 433.8 483.7 "/><polygon class="st3" points="452.2 520.2 463.9 520.2 462.5 517.9 453.5 517.9 "/><polygon class="st3" points="405.6 465.3 408.2 465.3 439.9 410.4 438.6 408.1 "/><polygon class="st3" points="540.8 486.5 483.8 486.5 485.2 488.8 539.5 488.8 "/><polygon class="st3" points="301.2 446.8 329.7 397.5 327 397.5 299.9 444.5 "/><polygon class="st3" points="301.2 462.5 338.7 397.5 336.1 397.5 299.9 460.2 "/><polygon class="st3" points="306 371.2 326.8 371.2 325.4 368.9 307.3 368.9 "/><polygon class="st3" points="320.9 361.1 319.6 363.4 322.2 363.4 320.9 361.1 "/><polygon class="st3" points="283.4 535.8 286 535.8 308.7 496.6 307.3 494.3 "/><polygon class="st3" points="278.8 543.7 335.8 543.7 334.5 541.4 280.2 541.4 "/><polygon class="st3" points="344.9 549.2 308.7 486.5 306 486.5 343.5 551.5 "/><polygon class="st3" points="301.2 415.5 311.6 397.5 308.9 397.5 299.9 413.2 "/><polygon class="st3" points="299.9 397.5 301.2 399.8 302.5 397.5 299.9 397.5 "/><polygon class="st3" points="301.2 431.2 320.6 397.5 318 397.5 299.9 428.9 "/><polygon class="st3" points="344.9 392.4 308.7 329.7 306 329.7 343.5 394.7 "/><polygon class="st3" points="298.3 316.3 382.4 316.3 381.1 314 299.6 314 "/><polygon class="st3" points="334.5 384.6 280.2 384.6 278.8 386.9 335.8 386.9 "/><polygon class="st3" points="316.4 285 328.1 285 326.8 282.7 317.7 282.7 "/><polygon class="st3" points="296.9 371.2 299.6 371.2 313.2 347.7 311.8 345.4 "/><polygon class="st3" points="310.5 363.4 313.2 363.4 317.7 355.5 316.4 353.2 "/><polygon class="st3" points="292.4 379.1 331.3 379.1 329.9 376.7 293.7 376.7 "/><polygon class="st3" points="283.4 379.1 286 379.1 308.7 339.9 307.3 337.6 "/><polygon class="st3" points="334.5 567.2 349.7 593.5 352.3 593.5 335.8 564.9 "/><polygon class="st3" points="299.9 554.3 299.9 554.3 301.2 556.6 302.5 554.3 "/><polygon class="st3" points="318 554.3 299.9 585.6 301.2 588 320.6 554.3 "/><polygon class="st3" points="311.6 554.3 308.9 554.3 299.9 570 301.2 572.3 "/><polygon class="st3" points="336.1 554.3 313.4 593.5 316.1 593.5 338.7 554.3 "/><polygon class="st3" points="320.9 590.7 320.9 590.7 323.6 590.7 322.2 588.4 "/><polygon class="st3" points="290.8 554.3 296.7 564.4 298 562.1 293.5 554.3 "/><polygon class="st3" points="327 554.3 304.4 593.5 307.1 593.5 329.7 554.3 "/><polygon class="st3" points="281.8 554.3 296.7 580.1 298 577.8 284.4 554.3 "/><polygon class="st3" points="320.9 517.9 319.6 520.2 322.2 520.2 320.9 517.9 "/><polygon class="st3" points="325.4 582.9 331.5 593.5 334.2 593.5 326.8 580.6 "/><polygon class="st3" points="306 528 326.8 528 325.4 525.7 307.3 525.7 "/><polygon class="st3" points="293.7 533.5 292.4 535.8 331.3 535.8 329.9 533.5 "/><polygon class="st3" points="310.5 520.2 313.2 520.2 317.7 512.3 316.4 510 "/><polygon class="st3" points="296.9 528 299.6 528 313.2 504.5 311.8 502.2 "/><polygon class="st3" points="329.9 575 340.6 593.5 343.3 593.5 331.3 572.7 "/><polygon class="st3" points="311.8 292.8 341.7 292.8 340.3 290.5 313.2 290.5 "/><polygon class="st3" points="339 559.4 358.7 593.5 361.4 593.5 340.3 557.1 "/><polygon class="st3" points="518.4 442.2 499 475.9 501.7 475.9 519.8 444.5 "/><polygon class="st3" points="527.2 494.3 488.4 494.3 489.7 496.6 525.9 496.6 "/><polygon class="st3" points="509.1 510 506.5 510 501.9 517.9 503.3 520.2 "/><polygon class="st3" points="536.3 494.3 533.6 494.3 511 533.5 512.3 535.8 "/><polygon class="st3" points="522.7 502.2 520 502.2 506.5 525.7 507.8 528 "/><polygon class="st3" points="498.7 512.3 500.1 510 497.4 510 498.7 512.3 "/><polygon class="st3" points="518.4 426.5 490 475.9 492.6 475.9 519.8 428.9 "/><polygon class="st3" points="513.7 502.2 492.9 502.2 494.2 504.5 512.3 504.5 "/><polygon class="st3" points="518.4 410.9 480.9 475.9 483.6 475.9 519.8 413.2 "/><polygon class="st3" points="435.6 319.1 437 321.4 438.3 319.1 435.6 319.1 "/><polygon class="st3" points="507.8 580.6 478 580.6 479.3 582.9 506.5 582.9 "/><polygon class="st3" points="511 575 512.3 572.7 464.4 572.7 465.7 575 "/><polygon class="st3" points="516.9 564.9 450.8 564.9 452.2 567.2 515.5 567.2 "/><polygon class="st3" points="516.8 549.2 435.4 549.2 434 551.5 518.2 551.5 "/><polygon class="st3" points="474.8 481 511 543.7 513.7 543.7 476.1 478.7 "/><polygon class="st3" points="363 590.7 363 590.7 364.3 588.4 361.6 588.4 "/><polygon class="st3" points="492.9 590.7 501.9 590.7 503.3 588.4 491.6 588.4 "/><polygon class="st3" points="438.6 559.4 520 559.4 521.4 557.1 437.2 557.1 "/><polygon class="st3" points="441.8 292.8 462.5 292.8 461.2 290.5 443.1 290.5 "/><polygon class="st3" points="415.9 306.2 414.6 308.5 471.6 308.5 470.3 306.2 "/><polygon class="st3" points="307.3 300.7 355.2 300.7 353.9 298.4 308.7 298.4 "/><polygon class="st3" points="429.5 298.4 428.2 300.7 467.1 300.7 465.7 298.4 "/><polygon class="st3" points="513.7 345.4 492.9 345.4 494.2 347.7 512.3 347.7 "/><polygon class="st3" points="474.8 314 402.4 314 401 316.3 476.1 316.3 "/><polygon class="st3" points="302.8 308.5 368.8 308.5 367.5 306.2 304.1 306.2 "/><polygon class="st3" points="456.7 282.7 455.3 285 458 285 456.7 282.7 "/><polygon class="st3" points="518.4 457.9 508.1 475.9 510.7 475.9 519.8 460.2 "/><polygon class="st3" points="385.6 321.9 301.5 321.9 302.8 324.2 384.3 324.2 "/><polygon class="st3" points="498.7 355.5 500.1 353.2 497.4 353.2 498.7 355.5 "/><polygon class="st3" points="540.8 329.7 483.8 329.7 485.2 332 539.5 332 "/><polygon class="st3" points="519.8 475.9 518.4 473.6 517.1 475.9 519.8 475.9 "/><polygon class="st3" points="536.3 337.6 533.6 337.5 511 376.7 512.3 379.1 "/><polygon class="st3" points="474.8 324.2 511 386.9 513.7 386.9 476.1 321.9 "/><polygon class="st3" points="527.2 337.6 488.4 337.6 489.7 339.9 525.9 339.9 "/><polygon class="st3" points="522.7 345.4 520 345.4 506.5 368.9 507.8 371.2 "/><polygon class="st3" points="509.1 353.2 506.5 353.2 501.9 361.1 503.3 363.4 "/><polygon class="st3" points="382.7 536.3 372.3 554.3 374.9 554.3 384 538.6 "/><polygon class="st3" points="460.9 279.9 460.9 279.9 444.4 251.3 441.8 251.3 458.3 279.9 458.3 279.9 479.3 316.3 480.6 314 "/><polygon class="st3" points="488.4 300.7 489.7 298.4 479 279.9 479 279.9 471.6 267 468.9 267 476.4 279.9 476.4 279.9 "/><polygon class="st3" points="485.2 306.2 470 279.9 470 279.9 458 259.2 455.3 259.2 467.3 279.9 467.3 279.9 483.8 308.5 "/><polygon class="st3" points="497.4 285 498.7 282.7 498.7 282.7 496.1 282.7 "/><polygon class="st3" points="494.2 290.5 488.1 279.9 488.1 279.9 485.2 274.8 482.5 274.8 485.4 279.9 485.4 279.9 492.9 292.8 "/><polygon class="st3" points="379.5 279.9 386.9 267 384.3 267 376.8 279.9 376.8 279.9 370.7 290.5 372 292.8 "/><polygon class="st3" points="449 285 451.9 279.9 451.9 279.9 453.5 277.1 452.2 274.8 449.2 279.9 449.2 279.9 446.3 285 "/><polygon class="st3" points="388.5 279.9 388.5 279.9 400.5 259.2 397.8 259.2 385.9 279.9 385.9 279.9 375.2 298.4 376.5 300.7 "/><polygon class="st3" points="545.6 399.8 545.6 397.5 544.3 397.5 "/><polygon class="st3" points="537.9 319.1 523 293.3 521.6 295.6 535.2 319.1 "/><polygon class="st3" points="536.8 394.7 545.6 394.7 545.6 392.4 538.1 392.4 "/><polygon class="st3" points="526.2 397.5 545.6 431.2 545.6 426.5 528.8 397.5 "/><polygon class="st3" points="537.9 475.9 523 450.1 521.6 452.4 535.2 475.9 "/><polygon class="st3" points="521.6 436.7 544.3 475.9 545.6 475.9 545.6 473.6 523 434.4 "/><polygon class="st3" points="544 386.9 545.6 384.1 545.6 379.5 541.3 386.9 "/><polygon class="st3" points="521.6 421 545.6 462.5 545.6 457.9 523 418.7 "/><polygon class="st3" points="535.2 397.5 545.6 415.5 545.6 410.9 537.9 397.5 "/><polygon class="st3" points="519.8 319.1 518.4 316.8 517.1 319.1 519.8 319.1 "/><polygon class="st3" points="518.4 301.1 508.1 319.1 510.7 319.1 519.8 303.4 "/><polygon class="st3" points="530.4 394.7 545.6 368.5 545.6 363.8 527.8 394.7 "/><polygon class="st3" points="518.4 285.4 499 319.1 501.7 319.1 519.8 287.7 "/><polygon class="st3" points="526.2 319.1 528.8 319.1 523 309 521.6 311.3 "/><polygon class="st3" points="521.4 394.7 545.6 352.8 545.6 348.2 520 392.4 "/><polygon class="st3" points="516.9 386.9 545.6 337.1 545.6 332.5 515.5 384.6 "/><polygon class="st3" points="480.6 324.2 545.6 324.2 545.6 321.9 479.3 321.9 "/><polygon class="st3" points="521.6 405.3 545.6 446.8 545.6 442.2 523 403 "/><polygon class="st3" points="293.5 475.9 274 442.2 274 442.2 251.4 403 250.1 405.3 274 446.8 274 446.8 290.8 475.9 "/><polygon class="st3" points="274 457.9 274 457.9 251.4 418.7 250.1 421 274 462.5 274 462.5 281.8 475.9 284.4 475.9 "/><polygon class="st3" points="293.5 397.5 290.8 397.5 296.7 407.6 298 405.3 "/><polygon class="st3" points="284.4 397.5 281.8 397.5 296.7 423.3 298 421 "/><polygon class="st3" points="282.8 478.7 274 478.7 274 478.7 207.7 478.7 209.1 481 274 481 274 481 281.5 481 "/><polygon class="st3" points="275.4 397.5 274 397.5 274 397.5 272.7 397.5 274 399.8 274 399.8 296.7 439 298 436.7 "/><polygon class="st3" points="274 554.3 274 554.3 272.7 554.3 274 556.6 295.3 593.5 298 593.5 298 593.5 275.4 554.3 "/><polygon class="st3" points="339 549.2 274 549.2 274 549.2 266.6 549.2 265.3 551.5 274 551.5 274 551.5 340.3 551.5 "/><polygon class="st3" points="274 567.7 266.3 554.3 263.7 554.3 274 572.3 274 572.3 286.3 593.5 289 593.5 274 567.7 "/><polygon class="st3" points="274 536.3 274 536.3 269.8 543.7 272.4 543.7 274 540.9 274 540.9 304.1 488.8 302.8 486.5 "/><polygon class="st3" points="278.3 486.5 275.6 486.5 274 489.3 274 489.3 244 541.4 245.3 543.7 274 493.9 274 493.9 "/><polygon class="st3" points="274 301.1 274 301.1 261.8 279.9 261.8 279.9 251.4 261.9 250.1 264.2 259.1 279.9 259.1 279.9 274 305.7 274 305.7 281.8 319.1 284.4 319.1 "/><polygon class="st3" points="301.2 305.7 316.1 279.9 338.7 240.7 336.1 240.7 313.4 279.9 313.4 279.9 299.9 303.4 "/><polygon class="st3" points="437 337.1 447.4 319.1 444.7 319.1 435.6 334.8 "/><polygon class="st3" points="301.2 290.1 307.1 279.9 329.7 240.7 327 240.7 304.4 279.9 304.4 279.9 299.9 287.7 "/><polygon class="st3" points="293.5 319.1 274 285.4 274 285.4 270.8 279.9 270.8 279.9 251.4 246.2 250.1 248.6 268.2 279.9 268.2 279.9 274 290.1 274 290.1 290.8 319.1 "/><polygon class="st3" points="274 384.1 304.1 332 302.8 329.7 274 379.5 274 379.5 269.8 386.9 272.4 386.9 "/><polygon class="st3" points="376.5 337.6 328.6 337.6 329.9 339.9 375.2 339.9 "/><polygon class="st3" points="372 345.4 342.2 345.4 343.5 347.7 370.7 347.7 "/><polygon class="st3" points="333.1 345.4 352.6 379.1 353.9 376.7 335.8 345.4 "/><polygon class="st3" points="381.1 329.7 315 329.7 316.4 332 379.7 332 "/><polygon class="st3" points="349.4 384.6 322.2 337.6 319.6 337.6 348.1 386.9 "/><polygon class="st3" points="418.6 400.3 343.5 400.3 344.9 402.6 417.3 402.6 "/><polygon class="st3" points="367.5 353.2 355.8 353.2 357.1 355.5 366.2 355.5 "/><polygon class="st3" points="363 361.1 360.3 361.1 361.6 363.4 "/><polygon class="st3" points="358.4 368.9 349.4 353.2 346.7 353.2 357.1 371.2 "/><polygon class="st3" points="382.7 348.2 354.2 397.5 356.8 397.5 384 350.5 "/><polygon class="st3" points="377.9 465.3 340.3 400.3 339 402.6 375.2 465.3 "/><polygon class="st3" points="316.4 441.8 328.1 441.8 326.8 439.5 317.7 439.5 "/><polygon class="st3" points="390.4 397.5 393 397.5 387.2 387.4 385.9 389.7 "/><polygon class="st3" points="320.9 433.9 320.9 433.9 323.6 433.9 322.2 431.6 "/><polygon class="st3" points="384 397.5 382.7 395.2 381.3 397.5 384 397.5 "/><polygon class="st3" points="382.7 332.5 345.1 397.5 347.8 397.5 384 334.8 "/><polygon class="st3" points="382.7 379.5 372.3 397.5 374.9 397.5 384 381.8 "/><polygon class="st3" points="382.7 363.8 363.2 397.5 365.9 397.5 384 366.1 "/><polygon class="st3" points="447.6 371.2 477.4 371.2 476.1 368.9 449 368.9 "/><polygon class="st3" points="456.7 355.5 456.7 355.5 459.3 355.5 458 353.2 "/><polygon class="st3" points="461.2 347.7 470.3 363.4 472.9 363.4 462.5 345.4 "/><polygon class="st3" points="325.4 426.1 334.5 441.8 337.1 441.8 326.8 423.8 "/><polygon class="st3" points="452.2 363.4 463.9 363.4 462.5 361.1 453.5 361.1 "/><polygon class="st3" points="526.2 475.9 528.8 475.9 523 465.7 521.6 468.1 "/><polygon class="st3" points="435.6 381.8 437 384.1 474.5 319.1 471.9 319.1 "/><polygon class="st3" points="437 352.8 456.4 319.1 453.7 319.1 435.6 350.5 "/><polygon class="st3" points="437 368.5 465.5 319.1 462.8 319.1 435.6 366.1 "/><polygon class="st3" points="387.2 340.3 385.9 342.6 417.5 397.5 420.2 397.5 "/><polygon class="st3" points="402.1 397.5 387.2 371.7 385.9 374 399.4 397.5 "/><polygon class="st3" points="443.1 379.1 491 379.1 489.7 376.7 444.4 376.7 "/><polygon class="st3" points="411.2 397.5 387.2 356 385.9 358.3 408.5 397.5 "/><polygon class="st3" points="390.4 319.1 432.5 392 433.8 389.7 393 319.1 "/><polygon class="st3" points="429.3 397.5 387.2 324.6 385.9 326.9 426.6 397.5 "/><polygon class="st3" points="438.6 386.9 504.6 386.9 503.3 384.6 439.9 384.6 "/><polygon class="st3" points="470.3 332 497.4 379.1 500.1 379.1 471.6 329.7 "/><polygon class="st3" points="399.4 319.1 432.5 376.3 433.8 374 402.1 319.1 "/><polygon class="st3" points="486.5 371.2 467.1 337.6 465.7 339.9 483.8 371.2 "/><polygon class="st3" points="521.6 593.5 521.6 593.5 524.3 593.5 523 591.2 "/><polygon class="st3" points="526.2 554.3 545.6 588 545.6 583.3 528.8 554.3 "/><polygon class="st3" points="521.6 577.8 530.7 593.5 533.4 593.5 523 575.5 "/><polygon class="st3" points="521.6 562.1 539.7 593.5 542.4 593.5 523 559.8 "/><polygon class="st3" points="512.6 593.5 515.3 593.5 519.8 585.6 518.4 583.3 "/><polygon class="st3" points="468.9 580.6 476.4 593.5 479 593.5 471.6 580.6 "/><polygon class="st3" points="482.5 588.4 485.4 593.5 488.1 593.5 485.2 588.4 "/><polygon class="st3" points="503.5 593.5 506.2 593.5 519.8 570 518.4 567.7 "/><polygon class="st3" points="545.6 556.6 545.6 554.3 544.3 554.3 "/><polygon class="st3" points="535.2 554.3 545.6 572.3 545.6 567.7 537.9 554.3 "/><polygon class="st3" points="530.4 551.5 545.6 525.2 545.6 520.6 527.8 551.5 "/><polygon class="st3" points="521.4 551.5 545.6 509.6 545.6 504.9 520 549.2 "/><polygon class="st3" points="480.6 481 545.6 481 545.6 478.7 479.3 478.7 "/><polygon class="st3" points="516.9 543.7 545.6 493.9 545.6 489.3 515.5 541.4 "/><polygon class="st3" points="455.3 572.7 467.3 593.5 470 593.5 458 572.7 "/><polygon class="st3" points="536.8 551.5 545.6 551.5 545.6 549.2 538.1 549.2 "/><polygon class="st3" points="544 543.7 545.6 540.9 545.6 536.3 541.3 543.7 "/><polygon class="st3" points="438.6 564.9 422.1 593.5 424.7 593.5 439.9 567.2 "/><polygon class="st3" points="384.3 580.6 376.8 593.5 379.5 593.5 386.9 580.6 "/><polygon class="st3" points="441.8 564.9 458.3 593.5 460.9 593.5 444.4 564.9 "/><polygon class="st3" points="364.3 457.4 335.8 408.1 334.5 410.4 361.6 457.4 "/><polygon class="st3" points="367.8 593.5 370.4 593.5 373.3 588.4 370.7 588.4 "/><polygon class="st3" points="385.6 478.7 301.5 478.7 302.8 481 384.3 481 "/><polygon class="st3" points="311.8 449.6 341.7 449.6 340.3 447.3 313.2 447.3 "/><polygon class="st3" points="307.3 457.4 355.2 457.4 353.9 455.1 308.7 455.1 "/><polygon class="st3" points="367.5 463 304.1 463 302.8 465.3 368.8 465.3 "/><polygon class="st3" points="381.1 470.8 299.6 470.8 298.3 473.1 382.4 473.1 "/><polygon class="st3" points="440.2 593.5 442.8 593.5 449 582.9 447.6 580.6 "/><polygon class="st3" points="350.7 449.6 331.3 415.9 329.9 418.3 348.1 449.6 "/><polygon class="st3" points="443.1 572.7 431.1 593.5 433.8 593.5 444.4 575 "/><polygon class="st3" points="449.2 593.5 451.9 593.5 453.5 590.7 452.2 588.4 "/><polygon class="st3" points="434 557.1 413 593.5 415.7 593.5 435.4 559.4 "/><polygon class="st3" points="411.4 564.9 394.9 593.5 397.6 593.5 414.1 564.9 "/><polygon class="st3" points="397.8 572.7 385.9 593.5 388.5 593.5 400.5 572.7 "/><polygon class="st3" points="425 557.1 404 593.5 406.6 593.5 427.7 557.1 "/><polygon class="st3" points="128.9 415.9 126.3 415.9 103.6 455.1 105 457.4 "/><polygon class="st3" points="118.6 418.3 119.9 415.9 81 415.9 82.3 418.3 "/><polygon class="st3" points="156.1 400.3 153.4 400.3 112.7 470.8 114 473.1 "/><polygon class="st3" points="85.5 580.6 86.9 582.9 105 582.9 106.3 580.6 "/><polygon class="st3" points="101.8 431.6 99.1 431.6 94.6 439.5 95.9 441.8 "/><polygon class="st3" points="132.1 410.4 133.5 408.1 76.5 408.1 77.8 410.4 "/><polygon class="st3" points="115.4 423.8 112.7 423.8 99.1 447.3 100.5 449.6 "/><polygon class="st3" points="157.7 319.1 155 319.1 160.9 329.3 162.2 326.9 "/><polygon class="st3" points="142.5 408.1 139.9 408.1 108.2 463 109.5 465.3 "/><polygon class="st3" points="156.6 457.4 195.5 457.4 194.2 455.1 158 455.1 "/><polygon class="st3" points="198.7 463 144.4 463 143 465.3 200 465.3 "/><polygon class="st3" points="174.7 441.8 177.4 441.8 181.9 433.9 180.6 431.6 "/><polygon class="st3" points="161.2 449.6 163.8 449.6 177.4 426.1 176.1 423.8 "/><polygon class="st3" points="123.1 473.1 163.8 402.6 162.5 400.3 120.4 473.1 "/><polygon class="st3" points="139.6 319.1 136.9 319.1 160.9 360.6 162.2 358.3 "/><polygon class="st3" points="170.2 449.6 191 449.6 189.6 447.3 171.5 447.3 "/><polygon class="st3" points="185.1 439.5 183.8 441.8 186.4 441.8 185.1 439.5 "/><polygon class="st3" points="100.5 502.2 70.6 502.2 72 504.5 99.1 504.5 "/><polygon class="st3" points="91.4 517.9 91.4 517.9 88.7 517.9 90.1 520.2 "/><polygon class="st3" points="86.9 525.7 77.8 510 75.2 510 85.5 528 "/><polygon class="st3" points="147.6 457.4 150.2 457.4 172.9 418.3 171.5 415.9 "/><polygon class="st3" points="91.4 433.9 92.7 431.6 90.1 431.6 91.4 433.9 "/><polygon class="st3" points="61.6 502.2 81 535.8 82.3 533.5 64.2 502.2 "/><polygon class="st3" points="118.6 575 119.9 572.7 81 572.7 82.3 575 "/><polygon class="st3" points="133.5 564.9 76.5 564.9 77.8 567.2 132.1 567.2 "/><polygon class="st3" points="147 557.1 72 557.1 73.3 559.4 145.7 559.4 "/><polygon class="st3" points="95.9 510 84.2 510 85.5 512.3 94.6 512.3 "/><polygon class="st3" points="112.4 554.3 111.1 552 109.8 554.3 112.4 554.3 "/><polygon class="st3" points="111.1 520.6 91.7 554.3 94.3 554.3 112.4 522.9 "/><polygon class="st3" points="111.1 504.9 82.6 554.3 85.3 554.3 112.4 507.3 "/><polygon class="st3" points="106.3 423.8 85.5 423.8 86.9 426.1 105 426.1 "/><polygon class="st3" points="77.8 541.4 50.7 494.3 48 494.3 76.5 543.7 "/><polygon class="st3" points="112.4 491.6 111.1 489.3 73.6 554.3 76.2 554.3 "/><polygon class="st3" points="109.5 486.5 43.5 486.5 44.8 488.8 108.2 488.8 "/><polygon class="st3" points="105 494.3 57.1 494.3 58.4 496.6 103.6 496.6 "/><polygon class="st3" points="148.6 319.1 146 319.1 160.9 344.9 162.2 342.6 "/><polygon class="st3" points="172.9 408.1 170.2 408.1 207.7 473.1 209.1 470.8 "/><polygon class="st3" points="165.4 509.6 184.9 475.9 182.2 475.9 164.1 507.2 "/><polygon class="st3" points="165.4 525.2 193.9 475.9 191.2 475.9 164.1 522.9 "/><polygon class="st3" points="231.7 431.6 220 431.6 221.3 433.9 230.4 433.9 "/><polygon class="st3" points="228.5 535.8 200 486.5 198.7 488.8 225.8 535.8 "/><polygon class="st3" points="165.4 493.9 175.8 475.9 173.1 475.9 164.1 491.6 "/><polygon class="st3" points="225.8 441.8 227.2 439.5 227.2 439.5 224.5 439.5 "/><polygon class="st3" points="231.7 541.4 168.3 541.4 167 543.7 233 543.7 "/><polygon class="st3" points="164.1 475.9 165.4 478.2 166.7 475.9 164.1 475.9 "/><polygon class="st3" points="165.4 540.9 203 475.9 200.3 475.9 164.1 538.6 "/><polygon class="st3" points="249.8 400.3 165.7 400.3 167 402.6 248.5 402.6 "/><polygon class="st3" points="245.3 408.1 179.3 408.1 180.6 410.4 244 410.4 "/><polygon class="st3" points="213.6 463 186.4 415.9 183.8 415.9 212.3 465.3 "/><polygon class="st3" points="222.7 447.3 213.6 431.6 210.9 431.6 221.3 449.6 "/><polygon class="st3" points="245.3 392.4 163.8 392.4 162.5 394.7 246.6 394.7 "/><polygon class="st3" points="240.8 415.9 192.8 415.9 194.2 418.3 239.4 418.3 "/><polygon class="st3" points="197.4 423.8 216.8 457.4 218.1 455.1 200 423.8 "/><polygon class="st3" points="236.2 423.8 206.4 423.8 207.7 426.1 234.9 426.1 "/><polygon class="st3" points="203.2 470.8 130.8 470.8 129.5 473.1 204.6 473.1 "/><polygon class="st3" points="162.2 546.4 121.5 475.9 118.8 475.9 160.9 548.8 "/><polygon class="st3" points="157.7 554.3 115.6 481.4 114.3 483.7 155 554.3 "/><polygon class="st3" points="130.5 475.9 127.9 475.9 160.9 533.1 162.2 530.8 "/><polygon class="st3" points="115.6 497.1 114.3 499.4 146 554.3 148.6 554.3 "/><polygon class="st3" points="118.8 554.3 121.5 554.3 115.6 544.1 114.3 546.4 "/><polygon class="st3" points="171.5 535.8 219.5 535.8 218.1 533.5 172.9 533.5 "/><polygon class="st3" points="139.6 554.3 115.6 512.8 114.3 515.1 136.9 554.3 "/><polygon class="st3" points="139.6 475.9 136.9 475.9 160.9 517.4 162.2 515.1 "/><polygon class="st3" points="130.5 554.3 115.6 528.5 114.3 530.8 127.9 554.3 "/><polygon class="st3" points="214.9 528 195.5 494.3 194.2 496.6 212.3 528 "/><polygon class="st3" points="185.1 512.3 185.1 512.3 187.8 512.3 186.4 510 "/><polygon class="st3" points="189.6 504.5 198.7 520.2 201.4 520.2 191 502.2 "/><polygon class="st3" points="176.1 528 205.9 528 204.6 525.7 177.4 525.7 "/><polygon class="st3" points="148.6 475.9 146 475.9 160.9 501.7 162.2 499.4 "/><polygon class="st3" points="157.7 475.9 155 475.9 160.9 486 162.2 483.7 "/><polygon class="st3" points="180.6 520.2 192.3 520.2 191 517.9 181.9 517.9 "/><polygon class="st3" points="168.3 410.4 167 408.1 134 465.3 136.7 465.3 "/><polygon class="st3" points="269.2 486.5 212.3 486.5 213.6 488.8 267.9 488.8 "/><polygon class="st3" points="29.6 446.8 58.1 397.5 55.5 397.5 28.3 444.5 "/><polygon class="st3" points="29.6 462.5 67.2 397.5 64.5 397.5 28.3 460.2 "/><polygon class="st3" points="34.4 371.2 55.2 371.2 53.9 368.9 35.8 368.9 "/><polygon class="st3" points="49.3 361.1 48 363.4 50.7 363.4 49.3 361.1 "/><polygon class="st3" points="11.8 535.8 14.5 535.8 37.1 496.6 35.8 494.3 "/><polygon class="st3" points="7.3 543.7 64.2 543.7 62.9 541.4 8.6 541.4 "/><polygon class="st3" points="73.3 549.2 37.1 486.5 34.4 486.5 72 551.5 "/><polygon class="st3" points="29.6 415.5 40 397.5 37.4 397.5 28.3 413.2 "/><polygon class="st3" points="28.3 397.5 29.6 399.8 31 397.5 28.3 397.5 "/><polygon class="st3" points="29.6 431.2 49.1 397.5 46.4 397.5 28.3 428.9 "/><polygon class="st3" points="73.3 392.4 37.1 329.7 34.4 329.7 72 394.7 "/><polygon class="st3" points="26.7 316.3 110.8 316.3 109.5 314 28 314 "/><polygon class="st3" points="7.3 386.9 64.2 386.9 62.9 384.6 8.6 384.6 "/><polygon class="st3" points="44.8 285 56.5 285 55.2 282.7 46.1 282.7 "/><polygon class="st3" points="25.4 371.2 28 371.2 41.6 347.7 40.3 345.4 "/><polygon class="st3" points="38.9 363.4 41.6 363.4 46.1 355.5 44.8 353.2 "/><polygon class="st3" points="20.8 379.1 59.7 379.1 58.4 376.7 22.2 376.7 "/><polygon class="st3" points="11.8 379.1 14.5 379.1 37.1 339.9 35.8 337.6 "/><polygon class="st3" points="62.9 567.2 78.1 593.5 80.8 593.5 64.2 564.9 "/><polygon class="st3" points="28.3 554.3 29.6 556.6 31 554.3 28.3 554.3 "/><polygon class="st3" points="46.4 554.3 28.3 585.6 29.6 588 49.1 554.3 "/><polygon class="st3" points="29.6 572.3 40 554.3 37.4 554.3 28.3 570 "/><polygon class="st3" points="64.5 554.3 41.9 593.5 44.5 593.5 67.2 554.3 "/><polygon class="st3" points="49.3 590.7 49.3 590.7 52 590.7 50.7 588.4 "/><polygon class="st3" points="19.2 554.3 25.1 564.4 26.4 562.1 21.9 554.3 "/><polygon class="st3" points="55.5 554.3 32.8 593.5 35.5 593.5 58.1 554.3 "/><polygon class="st3" points="10.2 554.3 25.1 580.1 26.4 577.8 12.9 554.3 "/><polygon class="st3" points="49.3 517.9 48 520.2 50.7 520.2 49.3 517.9 "/><polygon class="st3" points="53.9 582.9 60 593.5 62.6 593.5 55.2 580.6 "/><polygon class="st3" points="34.4 528 55.2 528 53.9 525.7 35.8 525.7 "/><polygon class="st3" points="20.8 535.8 59.7 535.8 58.4 533.5 22.2 533.5 "/><polygon class="st3" points="38.9 520.2 41.6 520.2 46.1 512.3 44.8 510 "/><polygon class="st3" points="25.4 528 28 528 41.6 504.5 40.3 502.2 "/><polygon class="st3" points="58.4 575 69 593.5 71.7 593.5 59.7 572.7 "/><polygon class="st3" points="40.3 292.8 70.1 292.8 68.8 290.5 41.6 290.5 "/><polygon class="st3" points="67.4 559.4 87.1 593.5 89.8 593.5 68.8 557.1 "/><polygon class="st3" points="246.9 442.2 227.4 475.9 230.1 475.9 248.2 444.5 "/><polygon class="st3" points="255.7 494.3 216.8 494.3 218.1 496.6 254.3 496.6 "/><polygon class="st3" points="237.6 510 234.9 510 230.4 517.9 231.7 520.2 "/><polygon class="st3" points="264.7 494.3 262.1 494.3 239.4 533.5 240.8 535.8 "/><polygon class="st3" points="251.1 502.2 248.5 502.2 234.9 525.7 236.2 528 "/><polygon class="st3" points="227.2 512.3 228.5 510 225.8 510 227.2 512.3 "/><polygon class="st3" points="246.9 426.5 218.4 475.9 221.1 475.9 248.2 428.9 "/><polygon class="st3" points="242.1 502.2 221.3 502.2 222.7 504.5 240.8 504.5 "/><polygon class="st3" points="246.9 410.9 209.3 475.9 212 475.9 248.2 413.2 "/><polygon class="st3" points="164.1 319.1 165.4 321.4 166.7 319.1 164.1 319.1 "/><polygon class="st3" points="236.2 580.6 206.4 580.6 207.7 582.9 234.9 582.9 "/><polygon class="st3" points="239.4 575 240.8 572.7 192.8 572.7 194.2 575 "/><polygon class="st3" points="245.3 564.9 179.3 564.9 180.6 567.2 244 567.2 "/><polygon class="st3" points="245.3 549.2 163.8 549.2 162.5 551.5 246.6 551.5 "/><polygon class="st3" points="203.2 481 239.4 543.7 242.1 543.7 204.6 478.7 "/><polygon class="st3" points="91.4 590.7 91.4 590.7 92.7 588.4 90.1 588.4 "/><polygon class="st3" points="221.3 590.7 230.4 590.7 231.7 588.4 220 588.4 "/><polygon class="st3" points="167 559.4 248.5 559.4 249.8 557.1 165.7 557.1 "/><polygon class="st3" points="170.2 292.8 191 292.8 189.6 290.5 171.5 290.5 "/><polygon class="st3" points="143 308.5 200 308.5 198.7 306.2 144.4 306.2 "/><polygon class="st3" points="35.8 300.7 83.7 300.7 82.3 298.4 37.1 298.4 "/><polygon class="st3" points="156.6 300.7 195.5 300.7 194.2 298.4 158 298.4 "/><polygon class="st3" points="242.1 345.4 221.3 345.4 222.7 347.7 240.8 347.7 "/><polygon class="st3" points="203.2 314 130.8 314 129.5 316.3 204.6 316.3 "/><polygon class="st3" points="31.2 308.5 97.3 308.5 95.9 306.2 32.6 306.2 "/><polygon class="st3" points="185.1 282.7 183.8 285 186.4 285 185.1 282.7 "/><polygon class="st3" points="246.9 457.9 236.5 475.9 239.2 475.9 248.2 460.2 "/><polygon class="st3" points="112.7 324.2 114 321.9 29.9 321.9 31.2 324.2 "/><polygon class="st3" points="227.2 355.5 228.5 353.2 225.8 353.2 227.2 355.5 "/><polygon class="st3" points="269.2 329.7 212.3 329.7 213.6 332 267.9 332 "/><polygon class="st3" points="248.2 475.9 246.9 473.6 245.6 475.9 248.2 475.9 "/><polygon class="st3" points="264.7 337.6 262.1 337.5 239.4 376.7 240.8 379.1 "/><polygon class="st3" points="203.2 324.2 239.4 386.9 242.1 386.9 204.6 321.9 "/><polygon class="st3" points="255.7 337.6 216.8 337.6 218.1 339.9 254.3 339.9 "/><polygon class="st3" points="251.1 345.4 248.5 345.4 234.9 368.9 236.2 371.2 "/><polygon class="st3" points="237.6 353.2 234.9 353.2 230.4 361.1 231.7 363.4 "/><polygon class="st3" points="111.1 536.3 100.7 554.3 103.4 554.3 112.4 538.6 "/><polygon class="st3" points="189.4 279.9 189.4 279.9 172.9 251.3 170.2 251.3 186.7 279.9 186.7 279.9 207.7 316.3 209.1 314 "/><polygon class="st3" points="216.8 300.7 218.1 298.4 207.5 279.9 207.5 279.9 200 267 197.4 267 204.8 279.9 204.8 279.9 "/><polygon class="st3" points="213.6 306.2 198.4 279.9 198.4 279.9 186.4 259.2 183.8 259.2 195.8 279.9 195.8 279.9 212.3 308.5 "/><polygon class="st3" points="225.8 285 227.2 282.7 227.2 282.7 224.5 282.7 "/><polygon class="st3" points="222.7 290.5 216.5 279.9 216.5 279.9 213.6 274.8 210.9 274.8 213.9 279.9 213.9 279.9 221.3 292.8 "/><polygon class="st3" points="107.9 279.9 115.4 267 112.7 267 105.2 279.9 105.2 279.9 99.1 290.5 100.5 292.8 "/><polygon class="st3" points="135.1 279.9 135.1 279.9 156.1 243.5 153.4 243.5 132.4 279.9 132.4 279.9 112.7 314 114 316.3 "/><polygon class="st3" points="126 279.9 126 279.9 142.5 251.3 139.9 251.3 123.3 279.9 123.3 279.9 108.2 306.2 109.5 308.5 "/><polygon class="st3" points="177.4 285 180.3 279.9 180.3 279.9 181.9 277.1 180.6 274.8 177.7 279.9 177.7 279.9 174.7 285 "/><polygon class="st3" points="117 279.9 117 279.9 128.9 259.2 126.3 259.2 114.3 279.9 114.3 279.9 103.6 298.4 105 300.7 "/><polygon class="st3" points="123.1 316.3 144.1 279.9 144.1 279.9 163.8 245.8 162.5 243.5 141.5 279.9 141.5 279.9 120.4 316.3 "/><polygon class="st3" points="150.2 300.7 162.2 279.9 162.2 279.9 172.9 261.5 171.5 259.2 159.6 279.9 159.6 279.9 147.6 300.7 "/><polygon class="st3" points="136.7 308.5 153.2 279.9 153.2 279.9 168.3 253.6 167 251.3 150.5 279.9 150.5 279.9 134 308.5 "/><polygon class="st3" points="266.3 319.1 251.4 293.3 250.1 295.6 263.7 319.1 "/><polygon class="st3" points="339 392.4 274 392.4 274 392.4 266.6 392.4 265.3 394.7 274 394.7 274 394.7 340.3 394.7 "/><polygon class="st3" points="296.7 470.4 298 468.1 274 426.5 274 426.5 257.3 397.5 254.6 397.5 274 431.2 274 431.2 "/><polygon class="st3" points="266.3 475.9 251.4 450.1 250.1 452.4 263.7 475.9 "/><polygon class="st3" points="274 475.9 274 475.9 275.4 475.9 274 473.6 274 473.6 251.4 434.4 250.1 436.7 272.7 475.9 "/><polygon class="st3" points="274 410.9 274 410.9 266.3 397.5 263.7 397.5 274 415.5 274 415.5 296.7 454.7 298 452.4 "/><polygon class="st3" points="248.2 319.1 246.9 316.8 245.6 319.1 248.2 319.1 "/><polygon class="st3" points="246.9 301.1 236.5 319.1 239.2 319.1 248.2 303.4 "/><polygon class="st3" points="256.2 394.7 258.9 394.7 274 368.5 274 368.5 299.6 324.2 298.3 321.9 274 363.8 274 363.8 "/><polygon class="st3" points="246.9 285.4 227.4 319.1 230.1 319.1 248.2 287.7 "/><polygon class="st3" points="254.6 319.1 257.3 319.1 251.4 309 250.1 311.3 "/><polygon class="st3" points="274 352.8 274 352.8 291.9 321.9 289.2 321.9 274 348.2 274 348.2 248.5 392.4 249.8 394.7 "/><polygon class="st3" points="278.3 329.7 275.6 329.7 274 332.5 274 332.5 244 384.6 245.3 386.9 274 337.1 274 337.1 "/><polygon class="st3" points="282.8 321.9 274 321.9 274 321.9 207.7 321.9 209.1 324.2 274 324.2 274 324.2 281.5 324.2 "/><polygon class="st3" points="26.4 468.1 2.5 426.5 2.5 431.2 25.1 470.4 "/><polygon class="st3" points="21.9 475.9 2.5 442.2 2.5 446.8 19.2 475.9 "/><polygon class="st3" points="12.9 475.9 2.5 457.9 2.5 462.5 10.2 475.9 "/><polygon class="st3" points="2.5 473.6 2.5 475.9 3.8 475.9 "/><polygon class="st3" points="21.9 397.5 19.2 397.5 25.1 407.6 26.4 405.3 "/><polygon class="st3" points="26.4 452.4 2.5 410.9 2.5 415.5 25.1 454.7 "/><polygon class="st3" points="10.2 397.5 25.1 423.3 26.4 421 12.9 397.5 "/><polygon class="st3" points="11.3 478.7 2.5 478.7 2.5 481 9.9 481 "/><polygon class="st3" points="26.4 436.7 3.8 397.5 2.5 397.5 2.5 399.8 25.1 439 "/><polygon class="st3" points="26.4 593.5 26.4 593.5 3.8 554.3 2.5 554.3 2.5 556.6 23.8 593.5 "/><polygon class="st3" points="67.4 392.4 2.5 392.4 2.5 394.7 68.8 394.7 "/><polygon class="st3" points="67.4 549.2 2.5 549.2 2.5 551.5 68.8 551.5 "/><polygon class="st3" points="17.4 593.5 2.5 567.7 2.5 572.3 14.7 593.5 "/><polygon class="st3" points="5.7 593.5 8.3 593.5 2.5 583.3 2.5 588 "/><polygon class="st3" points="26.7 478.7 2.5 520.6 2.5 525.2 28 481 "/><polygon class="st3" points="17.7 478.7 2.5 504.9 2.5 509.6 20.3 478.7 "/><polygon class="st3" points="31.2 486.5 2.5 536.3 2.5 540.9 32.6 488.8 "/><polygon class="st3" points="4.1 486.5 2.5 489.3 2.5 493.9 6.7 486.5 "/><polygon class="st3" points="12.9 319.1 2.5 301.1 2.5 305.7 10.2 319.1 "/><polygon class="st3" points="29.6 305.7 44.5 279.9 67.2 240.7 64.5 240.7 41.9 279.9 41.9 279.9 28.3 303.4 "/><polygon class="st3" points="165.4 337.1 175.8 319.1 173.1 319.1 164.1 334.8 "/><polygon class="st3" points="29.6 290.1 35.5 279.9 58.1 240.7 55.5 240.7 32.8 279.9 32.8 279.9 28.3 287.7 "/><polygon class="st3" points="25.1 282.2 26.4 279.9 26.4 279.9 26.4 279.9 3.8 240.7 2.5 240.7 2.5 243 23.8 279.9 "/><polygon class="st3" points="14.7 279.9 25.1 297.9 26.4 295.6 17.4 279.9 17.4 279.9 2.5 254.1 2.5 258.7 14.7 279.9 "/><polygon class="st3" points="5.7 279.9 25.1 313.6 26.4 311.3 8.3 279.9 8.3 279.9 2.5 269.8 2.5 274.4 5.7 279.9 "/><polygon class="st3" points="17.7 321.9 2.5 348.2 2.5 352.8 20.3 321.9 "/><polygon class="st3" points="11.3 321.9 2.5 321.9 2.5 324.2 9.9 324.2 "/><polygon class="st3" points="4.1 329.7 2.5 332.5 2.5 337.1 6.7 329.7 "/><polygon class="st3" points="26.7 321.9 2.5 363.8 2.5 368.5 28 324.2 "/><polygon class="st3" points="21.9 319.1 2.5 285.4 2.5 290.1 19.2 319.1 "/><polygon class="st3" points="2.5 316.8 2.5 319.1 3.8 319.1 "/><polygon class="st3" points="31.2 329.7 2.5 379.5 2.5 384.1 32.6 332 "/><polygon class="st3" points="105 337.6 57.1 337.6 58.4 339.9 103.6 339.9 "/><polygon class="st3" points="100.5 345.4 70.6 345.4 72 347.7 99.1 347.7 "/><polygon class="st3" points="61.6 345.4 81 379.1 82.3 376.7 64.2 345.4 "/><polygon class="st3" points="109.5 329.7 43.5 329.7 44.8 332 108.2 332 "/><polygon class="st3" points="77.8 384.6 50.7 337.6 48 337.6 76.5 386.9 "/><polygon class="st3" points="73.3 402.6 145.7 402.6 147 400.3 72 400.3 "/><polygon class="st3" points="95.9 353.2 84.2 353.2 85.5 355.5 94.6 355.5 "/><polygon class="st3" points="91.4 361.1 88.7 361.1 90.1 363.4 "/><polygon class="st3" points="86.9 368.9 77.8 353.2 75.2 353.2 85.5 371.2 "/><polygon class="st3" points="111.1 348.2 82.6 397.5 85.3 397.5 112.4 350.5 "/><polygon class="st3" points="103.6 465.3 106.3 465.3 68.8 400.3 67.4 402.6 "/><polygon class="st3" points="44.8 441.8 56.5 441.8 55.2 439.5 46.1 439.5 "/><polygon class="st3" points="118.8 397.5 121.5 397.5 115.6 387.4 114.3 389.7 "/><polygon class="st3" points="49.3 433.9 49.3 433.9 52 433.9 50.7 431.6 "/><polygon class="st3" points="112.4 397.5 111.1 395.2 109.8 397.5 112.4 397.5 "/><polygon class="st3" points="112.4 334.8 111.1 332.5 73.6 397.5 76.2 397.5 "/><polygon class="st3" points="111.1 379.5 100.7 397.5 103.4 397.5 112.4 381.8 "/><polygon class="st3" points="111.1 363.8 91.7 397.5 94.3 397.5 112.4 366.1 "/><polygon class="st3" points="176.1 371.2 205.9 371.2 204.6 368.9 177.4 368.9 "/><polygon class="st3" points="185.1 355.5 185.1 355.5 187.8 355.5 186.4 353.2 "/><polygon class="st3" points="189.6 347.7 198.7 363.4 201.4 363.4 191 345.4 "/><polygon class="st3" points="53.9 426.1 62.9 441.8 65.6 441.8 55.2 423.8 "/><polygon class="st3" points="180.6 363.4 192.3 363.4 191 361.1 181.9 361.1 "/><polygon class="st3" points="254.6 475.9 257.3 475.9 251.4 465.7 250.1 468.1 "/><polygon class="st3" points="165.4 384.1 203 319.1 200.3 319.1 164.1 381.8 "/><polygon class="st3" points="165.4 352.8 184.9 319.1 182.2 319.1 164.1 350.5 "/><polygon class="st3" points="165.4 368.5 193.9 319.1 191.2 319.1 164.1 366.1 "/><polygon class="st3" points="148.6 397.5 115.6 340.3 114.3 342.6 146 397.5 "/><polygon class="st3" points="130.5 397.5 115.6 371.7 114.3 374 127.9 397.5 "/><polygon class="st3" points="171.5 379.1 219.5 379.1 218.1 376.7 172.9 376.7 "/><polygon class="st3" points="139.6 397.5 115.6 356 114.3 358.3 136.9 397.5 "/><polygon class="st3" points="160.9 392 162.2 389.7 121.5 319.1 118.8 319.1 "/><polygon class="st3" points="157.7 397.5 115.6 324.6 114.3 326.9 155 397.5 "/><polygon class="st3" points="231.7 384.6 168.3 384.6 167 386.9 233 386.9 "/><polygon class="st3" points="228.5 379.1 200 329.7 198.7 332 225.8 379.1 "/><polygon class="st3" points="127.9 319.1 160.9 376.3 162.2 374 130.5 319.1 "/><polygon class="st3" points="214.9 371.2 195.5 337.6 194.2 339.9 212.3 371.2 "/><polygon class="st3" points="250.1 593.5 250.1 593.5 252.7 593.5 251.4 591.2 "/><polygon class="st3" points="274 583.3 257.3 554.3 254.6 554.3 274 588 274 588 277.2 593.5 279.9 593.5 274 583.3 "/><polygon class="st3" points="250.1 577.8 259.1 593.5 261.8 593.5 251.4 575.5 "/><polygon class="st3" points="250.1 562.1 268.2 593.5 270.8 593.5 251.4 559.8 "/><polygon class="st3" points="241 593.5 243.7 593.5 248.2 585.6 246.9 583.3 "/><polygon class="st3" points="197.4 580.6 204.8 593.5 207.5 593.5 200 580.6 "/><polygon class="st3" points="210.9 588.4 213.9 593.5 216.5 593.5 213.6 588.4 "/><polygon class="st3" points="232 593.5 234.6 593.5 248.2 570 246.9 567.7 "/><polygon class="st3" points="256.2 551.5 258.9 551.5 274 525.2 274 525.2 299.6 481 298.3 478.7 274 520.6 "/><polygon class="st3" points="274 509.6 291.9 478.7 289.2 478.7 274 504.9 274 504.9 248.5 549.2 249.8 551.5 274 509.6 "/><polygon class="st3" points="183.8 572.7 195.8 593.5 198.4 593.5 186.4 572.7 "/><polygon class="st3" points="167 564.9 150.5 593.5 153.2 593.5 168.3 567.2 "/><polygon class="st3" points="112.7 580.6 105.2 593.5 107.9 593.5 115.4 580.6 "/><polygon class="st3" points="170.2 564.9 186.7 593.5 189.4 593.5 172.9 564.9 "/><polygon class="st3" points="62.9 410.4 90.1 457.4 92.7 457.4 64.2 408.1 "/><polygon class="st3" points="96.2 593.5 98.9 593.5 101.8 588.4 99.1 588.4 "/><polygon class="st3" points="112.7 481 114 478.7 29.9 478.7 31.2 481 "/><polygon class="st3" points="40.3 449.6 70.1 449.6 68.8 447.3 41.6 447.3 "/><polygon class="st3" points="35.8 457.4 83.7 457.4 82.3 455.1 37.1 455.1 "/><polygon class="st3" points="31.2 465.3 97.3 465.3 95.9 463 32.6 463 "/><polygon class="st3" points="26.7 473.1 110.8 473.1 109.5 470.8 28 470.8 "/><polygon class="st3" points="168.6 593.5 171.3 593.5 177.4 582.9 176.1 580.6 "/><polygon class="st3" points="79.2 449.6 59.7 415.9 58.4 418.3 76.5 449.6 "/><polygon class="st3" points="171.5 572.7 159.6 593.5 162.2 593.5 172.9 575 "/><polygon class="st3" points="177.7 593.5 180.3 593.5 181.9 590.7 180.6 588.4 "/><polygon class="st3" points="162.5 557.1 141.5 593.5 144.1 593.5 163.8 559.4 "/><polygon class="st3" points="139.9 564.9 123.3 593.5 126 593.5 142.5 564.9 "/><polygon class="st3" points="126.3 572.7 114.3 593.5 117 593.5 128.9 572.7 "/><polygon class="st3" points="153.4 557.1 132.4 593.5 135.1 593.5 156.1 557.1 "/><polygon class="st3" points="400.5 102.4 397.8 102.4 375.2 141.6 376.5 143.9 "/><polygon class="st3" points="391.5 102.4 352.6 102.4 353.9 104.7 390.1 104.7 "/><polygon class="st3" points="384.3 157.2 385.6 159.6 427.7 86.7 425 86.7 "/><polygon class="st3" points="377.9 267 357.1 267 358.4 269.3 376.5 269.3 "/><polygon class="st3" points="373.3 118 370.7 118 366.2 125.9 367.5 128.2 "/><polygon class="st3" points="349.4 96.8 403.7 96.8 405 94.5 348.1 94.5 "/><polygon class="st3" points="386.9 110.2 384.3 110.2 370.7 133.7 372 136 "/><polygon class="st3" points="429.3 5.5 426.6 5.5 432.5 15.7 433.8 13.4 "/><polygon class="st3" points="379.7 149.4 381.1 151.7 414.1 94.5 411.4 94.5 "/><polygon class="st3" points="429.5 141.6 428.2 143.9 467.1 143.9 465.7 141.6 "/><polygon class="st3" points="415.9 149.4 414.6 151.7 471.6 151.7 470.3 149.4 "/><polygon class="st3" points="446.3 128.2 449 128.2 453.5 120.4 452.2 118 "/><polygon class="st3" points="432.7 136 435.4 136 449 112.5 447.6 110.2 "/><polygon class="st3" points="394.6 159.6 435.4 89 434 86.7 392 159.6 "/><polygon class="st3" points="408.5 5.5 432.5 47 433.8 44.7 411.2 5.5 "/><polygon class="st3" points="441.8 136 462.5 136 461.2 133.7 443.1 133.7 "/><polygon class="st3" points="456.7 125.9 455.3 128.2 458 128.2 456.7 125.9 "/><polygon class="st3" points="372 188.6 342.2 188.6 343.5 190.9 370.7 190.9 "/><polygon class="st3" points="363 204.3 363 204.3 360.3 204.3 361.6 206.6 "/><polygon class="st3" points="358.4 212.1 349.4 196.4 346.7 196.4 357.1 214.4 "/><polygon class="st3" points="419.1 143.9 421.8 143.9 444.4 104.7 443.1 102.4 "/><polygon class="st3" points="363 120.4 364.3 118 361.6 118 363 120.4 "/><polygon class="st3" points="333.1 188.6 352.6 222.3 353.9 220 335.8 188.6 "/><polygon class="st3" points="391.5 259.2 352.6 259.2 353.9 261.5 390.1 261.5 "/><polygon class="st3" points="349.4 253.6 403.7 253.6 405 251.3 348.1 251.3 "/><polygon class="st3" points="344.9 245.8 417.3 245.8 418.6 243.5 343.5 243.5 "/><polygon class="st3" points="367.5 196.4 355.8 196.4 357.1 198.7 366.2 198.7 "/><polygon class="st3" points="384 240.7 382.7 238.4 381.3 240.7 384 240.7 "/><polygon class="st3" points="382.7 207 363.2 240.7 365.9 240.7 384 209.4 "/><polygon class="st3" points="382.7 191.4 354.2 240.7 356.8 240.7 384 193.7 "/><polygon class="st3" points="377.9 110.2 357.1 110.2 358.4 112.5 376.5 112.5 "/><polygon class="st3" points="319.6 180.8 348.1 230.1 349.4 227.8 322.2 180.8 "/><polygon class="st3" points="382.7 175.7 345.1 240.7 347.8 240.7 384 178 "/><polygon class="st3" points="316.4 175.2 379.7 175.2 381.1 172.9 315 172.9 "/><polygon class="st3" points="376.5 180.8 328.6 180.8 329.9 183.1 375.2 183.1 "/><polygon class="st3" points="417.5 5.5 432.5 31.4 433.8 29 420.2 5.5 "/><polygon class="st3" points="444.4 94.5 441.8 94.5 479.3 159.6 480.6 157.2 "/><polygon class="st3" points="437 196 456.4 162.3 453.7 162.3 435.6 193.7 "/><polygon class="st3" points="437 211.7 465.5 162.3 462.8 162.3 435.6 209.4 "/><polygon class="st3" points="503.3 118 491.6 118 492.9 120.4 501.9 120.4 "/><polygon class="st3" points="470.3 175.2 497.4 222.3 500.1 222.3 471.6 172.9 "/><polygon class="st3" points="437 180.3 447.4 162.3 444.7 162.3 435.6 178 "/><polygon class="st3" points="497.4 128.2 498.7 125.9 498.7 125.9 496.1 125.9 "/><polygon class="st3" points="438.6 230.1 504.6 230.1 503.3 227.8 439.9 227.8 "/><polygon class="st3" points="435.6 162.3 437 164.6 438.3 162.3 435.6 162.3 "/><polygon class="st3" points="435.6 225 437 227.3 474.5 162.3 471.9 162.3 "/><polygon class="st3" points="521.4 86.7 437.2 86.7 438.6 89 520 89 "/><polygon class="st3" points="516.9 94.5 450.8 94.5 452.2 96.8 515.5 96.8 "/><polygon class="st3" points="485.2 149.4 458 102.4 455.3 102.4 483.8 151.7 "/><polygon class="st3" points="494.2 133.7 485.2 118 482.5 118 492.9 136 "/><polygon class="st3" points="435.4 78.9 434 81.2 518.2 81.2 516.8 78.9 "/><polygon class="st3" points="512.3 102.4 464.4 102.4 465.7 104.7 511 104.7 "/><polygon class="st3" points="468.9 110.2 488.4 143.9 489.7 141.6 471.6 110.2 "/><polygon class="st3" points="507.8 110.2 478 110.2 479.3 112.5 506.5 112.5 "/><polygon class="st3" points="474.8 157.2 402.4 157.2 401 159.6 476.1 159.6 "/><polygon class="st3" points="390.4 162.3 432.5 235.2 433.8 232.9 393 162.3 "/><polygon class="st3" points="385.9 170.2 426.6 240.7 429.3 240.7 387.2 167.8 "/><polygon class="st3" points="399.4 162.3 432.5 219.5 433.8 217.2 402.1 162.3 "/><polygon class="st3" points="417.5 240.7 420.2 240.7 387.2 183.5 385.9 185.8 "/><polygon class="st3" points="390.4 240.7 393 240.7 387.2 230.6 385.9 232.9 "/><polygon class="st3" points="443.1 222.3 491 222.3 489.7 220 444.4 220 "/><polygon class="st3" points="408.5 240.7 411.2 240.7 387.2 199.2 385.9 201.5 "/><polygon class="st3" points="408.5 162.3 432.5 203.8 433.8 201.5 411.2 162.3 "/><polygon class="st3" points="402.1 240.7 387.2 214.9 385.9 217.2 399.4 240.7 "/><polygon class="st3" points="486.5 214.4 467.1 180.8 465.7 183.1 483.8 214.4 "/><polygon class="st3" points="456.7 198.7 456.7 198.8 459.3 198.7 458 196.4 "/><polygon class="st3" points="461.2 190.9 470.3 206.6 472.9 206.6 462.5 188.6 "/><polygon class="st3" points="447.6 214.4 477.4 214.4 476.1 212.1 449 212.1 "/><polygon class="st3" points="417.5 162.3 432.5 188.1 433.8 185.8 420.2 162.3 "/><polygon class="st3" points="429.3 162.3 426.6 162.3 432.5 172.5 433.8 170.2 "/><polygon class="st3" points="452.2 206.6 463.9 206.6 462.5 204.3 453.5 204.3 "/><polygon class="st3" points="405.6 151.7 408.2 151.7 439.9 96.8 438.6 94.5 "/><polygon class="st3" points="540.8 172.9 483.8 172.9 485.2 175.2 539.5 175.2 "/><polygon class="st3" points="301.2 133.3 329.7 83.9 327 83.9 299.9 131 "/><polygon class="st3" points="301.2 148.9 338.7 83.9 336.1 83.9 299.9 146.6 "/><polygon class="st3" points="306 57.6 326.8 57.6 325.4 55.3 307.3 55.3 "/><polygon class="st3" points="320.9 47.5 319.6 49.8 322.2 49.8 320.9 47.5 "/><polygon class="st3" points="283.4 222.3 286 222.3 308.7 183.1 307.3 180.8 "/><polygon class="st3" points="278.8 230.1 335.8 230.1 334.5 227.8 280.2 227.8 "/><polygon class="st3" points="344.9 235.6 308.7 172.9 306 172.9 343.5 237.9 "/><polygon class="st3" points="301.2 101.9 311.6 83.9 308.9 83.9 299.9 99.6 "/><polygon class="st3" points="299.9 83.9 301.2 86.2 302.5 83.9 299.9 83.9 "/><polygon class="st3" points="301.2 117.6 320.6 83.9 318 83.9 299.9 115.3 "/><polygon class="st3" points="344.9 78.9 308.7 16.1 306 16.1 343.5 81.2 "/><polygon class="st3" points="381.1 0.5 299.6 0.5 298.3 2.8 382.4 2.8 "/><polygon class="st3" points="278.8 73.3 335.8 73.3 334.5 71 280.2 71 "/><polygon class="st3" points="326.8 -30.9 317.7 -30.9 316.4 -28.6 328.1 -28.6 "/><polygon class="st3" points="296.9 57.6 299.6 57.6 313.2 34.1 311.8 31.8 "/><polygon class="st3" points="310.5 49.8 313.2 49.8 317.7 42 316.4 39.7 "/><polygon class="st3" points="292.4 65.5 331.3 65.5 329.9 63.2 293.7 63.2 "/><polygon class="st3" points="283.4 65.5 286 65.5 308.7 26.3 307.3 24 "/><polygon class="st3" points="334.5 253.6 349.7 279.9 349.7 279.9 361.6 300.7 364.3 300.7 352.3 279.9 352.3 279.9 335.8 251.3 "/><polygon class="st3" points="299.9 240.7 301.2 243 302.5 240.7 299.9 240.7 "/><polygon class="st3" points="301.2 274.4 320.6 240.7 318 240.7 299.9 272.1 "/><polygon class="st3" points="301.2 258.7 311.6 240.7 308.9 240.7 299.9 256.4 "/><polygon class="st3" points="320.9 277.1 320.9 277.1 323.6 277.1 322.2 274.8 "/><polygon class="st3" points="293.5 240.7 290.8 240.7 296.7 250.9 298 248.6 "/><polygon class="st3" points="281.8 240.7 296.7 266.5 298 264.2 284.4 240.7 "/><polygon class="st3" points="320.9 204.3 319.6 206.6 322.2 206.6 320.9 204.3 "/><polygon class="st3" points="325.4 269.3 331.5 279.9 331.5 279.9 334.5 285 337.1 285 334.2 279.9 334.2 279.9 326.8 267 "/><polygon class="st3" points="306 214.4 326.8 214.4 325.4 212.1 307.3 212.1 "/><polygon class="st3" points="292.4 222.3 331.3 222.3 329.9 220 293.7 220 "/><polygon class="st3" points="310.5 206.6 313.2 206.6 317.7 198.7 316.4 196.4 "/><polygon class="st3" points="296.9 214.4 299.6 214.4 313.2 190.9 311.8 188.6 "/><polygon class="st3" points="331.3 259.2 329.9 261.5 340.6 279.9 340.6 279.9 348.1 292.8 350.7 292.8 343.3 279.9 343.3 279.9 "/><polygon class="st3" points="311.8 -20.8 341.7 -20.8 340.3 -23.1 313.2 -23.1 "/><polygon class="st3" points="358.7 279.9 358.7 279.9 375.2 308.5 377.9 308.5 361.4 279.9 361.4 279.9 340.3 243.5 339 245.8 "/><polygon class="st3" points="518.4 128.7 499 162.3 501.7 162.3 519.8 131 "/><polygon class="st3" points="527.2 180.8 488.4 180.8 489.7 183.1 525.9 183.1 "/><polygon class="st3" points="509.1 196.4 506.5 196.4 501.9 204.3 503.3 206.6 "/><polygon class="st3" points="536.3 180.8 533.6 180.8 511 220 512.3 222.3 "/><polygon class="st3" points="522.7 188.6 520 188.6 506.5 212.1 507.8 214.4 "/><polygon class="st3" points="498.7 198.7 500.1 196.4 497.4 196.4 498.7 198.7 "/><polygon class="st3" points="518.4 113 490 162.3 492.6 162.3 519.8 115.3 "/><polygon class="st3" points="513.7 188.6 492.9 188.6 494.2 190.9 512.3 190.9 "/><polygon class="st3" points="518.4 97.3 480.9 162.3 483.6 162.3 519.8 99.6 "/><polygon class="st3" points="435.6 5.5 437 7.8 438.3 5.5 435.6 5.5 "/><polygon class="st3" points="507.8 267 478 267 479.3 269.3 506.5 269.3 "/><polygon class="st3" points="512.3 259.2 464.4 259.2 465.7 261.5 511 261.5 "/><polygon class="st3" points="516.9 251.3 450.8 251.3 452.2 253.6 515.5 253.6 "/><polygon class="st3" points="435.4 235.6 434 237.9 518.2 237.9 516.8 235.6 "/><polygon class="st3" points="474.8 167.4 511 230.1 513.7 230.1 476.1 165.1 "/><polygon class="st3" points="363 277.1 364.3 274.8 361.6 274.8 363 277.1 "/><polygon class="st3" points="503.3 274.8 491.6 274.8 492.9 277.1 501.9 277.1 "/><polygon class="st3" points="521.4 243.5 437.2 243.5 438.6 245.8 520 245.8 "/><polygon class="st3" points="462.5 -20.8 461.2 -23.1 443.1 -23.1 441.8 -20.8 "/><polygon class="st3" points="414.6 -5.1 471.6 -5.1 470.3 -7.4 415.9 -7.4 "/><polygon class="st3" points="308.7 -15.2 307.3 -12.9 355.2 -12.9 353.9 -15.2 "/><polygon class="st3" points="429.5 -15.2 428.2 -12.9 467.1 -12.9 465.7 -15.2 "/><polygon class="st3" points="513.7 31.8 492.9 31.8 494.2 34.1 512.3 34.1 "/><polygon class="st3" points="401 2.8 476.1 2.8 474.8 0.5 402.4 0.5 "/><polygon class="st3" points="302.8 -5.1 368.8 -5.1 367.5 -7.4 304.1 -7.4 "/><polygon class="st3" points="456.7 -30.9 456.7 -30.9 455.3 -28.6 458 -28.6 "/><polygon class="st3" points="518.4 144.3 508.1 162.3 510.7 162.3 519.8 146.6 "/><polygon class="st3" points="302.8 10.6 384.3 10.6 385.6 8.3 301.5 8.3 "/><polygon class="st3" points="498.7 42 500.1 39.7 497.4 39.7 498.7 42 "/><polygon class="st3" points="540.8 16.1 483.8 16.1 485.2 18.4 539.5 18.4 "/><polygon class="st3" points="519.8 162.3 518.4 160 517.1 162.3 519.8 162.3 "/><polygon class="st3" points="536.3 24 533.6 24 511 63.2 512.3 65.5 "/><polygon class="st3" points="474.8 10.6 511 73.3 513.7 73.3 476.1 8.3 "/><polygon class="st3" points="527.2 24 488.4 24 489.7 26.3 525.9 26.3 "/><polygon class="st3" points="522.7 31.8 520 31.8 506.5 55.3 507.8 57.6 "/><polygon class="st3" points="509.1 39.7 506.5 39.7 501.9 47.5 503.3 49.8 "/><polygon class="st3" points="382.7 222.7 372.3 240.7 374.9 240.7 384 225 "/><polygon class="st3" points="480.6 0.5 460.9 -33.7 458.3 -33.7 479.3 2.8 "/><polygon class="st3" points="489.7 -15.2 479 -33.7 476.4 -33.7 488.4 -12.9 "/><polygon class="st3" points="485.2 -7.4 470 -33.7 467.3 -33.7 483.8 -5.1 "/><polygon class="st3" points="498.7 -30.9 498.7 -30.9 496.1 -30.9 497.4 -28.6 "/><polygon class="st3" points="494.2 -23.1 488.1 -33.7 485.4 -33.7 492.9 -20.8 "/><polygon class="st3" points="379.5 -33.7 376.8 -33.7 370.7 -23.1 372 -20.8 "/><polygon class="st3" points="483.6 5.5 506.2 -33.7 503.5 -33.7 480.9 5.5 "/><polygon class="st3" points="545.6 -12.5 533.4 -33.7 530.7 -33.7 545.6 -7.8 "/><polygon class="st3" points="492.6 5.5 515.3 -33.7 512.6 -33.7 490 5.5 "/><polygon class="st3" points="545.6 5.5 545.6 3.2 524.3 -33.7 521.6 -33.7 544.3 5.5 "/><polygon class="st3" points="385.6 2.8 406.6 -33.7 404 -33.7 384.3 0.5 "/><polygon class="st3" points="381.1 -5.1 397.6 -33.7 394.9 -33.7 379.7 -7.4 "/><polygon class="st3" points="451.9 -33.7 449.2 -33.7 446.3 -28.6 449 -28.6 "/><polygon class="st3" points="376.5 -12.9 388.5 -33.7 385.9 -33.7 375.2 -15.2 "/><polygon class="st3" points="394.6 2.8 415.7 -33.7 413 -33.7 392 2.8 "/><polygon class="st3" points="435.4 -20.8 442.8 -33.7 440.2 -33.7 432.7 -20.8 "/><polygon class="st3" points="421.8 -12.9 433.8 -33.7 431.1 -33.7 419.1 -12.9 "/><polygon class="st3" points="408.2 -5.1 424.7 -33.7 422.1 -33.7 405.6 -5.1 "/><polygon class="st3" points="545.6 -28.1 542.4 -33.7 539.7 -33.7 545.6 -23.5 "/><polygon class="st3" points="545.6 86.2 545.6 83.9 544.3 83.9 "/><polygon class="st3" points="521.6 -18 535.2 5.5 537.9 5.5 523 -20.3 "/><polygon class="st3" points="536.8 81.2 545.6 81.2 545.6 78.9 538.1 78.9 "/><polygon class="st3" points="526.2 83.9 545.6 117.6 545.6 113 528.8 83.9 "/><polygon class="st3" points="537.9 162.3 523 136.5 521.6 138.8 535.2 162.3 "/><polygon class="st3" points="521.6 123.1 544.3 162.3 545.6 162.3 545.6 160 523 120.8 "/><polygon class="st3" points="544 73.3 545.6 70.6 545.6 65.9 541.3 73.3 "/><polygon class="st3" points="521.6 107.4 545.6 148.9 545.6 144.3 523 105.1 "/><polygon class="st3" points="535.2 83.9 545.6 101.9 545.6 97.3 537.9 83.9 "/><polygon class="st3" points="519.8 5.5 519.8 5.5 518.4 3.2 517.1 5.5 "/><polygon class="st3" points="508.1 5.5 510.7 5.5 519.8 -10.1 518.4 -12.5 "/><polygon class="st3" points="530.4 81.2 545.6 54.9 545.6 50.3 527.8 81.2 "/><polygon class="st3" points="501.7 5.5 519.8 -25.8 518.4 -28.1 499 5.5 "/><polygon class="st3" points="528.8 5.5 523 -4.6 521.6 -2.3 526.2 5.5 "/><polygon class="st3" points="521.4 81.2 545.6 39.2 545.6 34.6 520 78.9 "/><polygon class="st3" points="516.9 73.3 545.6 23.5 545.6 18.9 515.5 71 "/><polygon class="st3" points="480.6 10.6 545.6 10.6 545.6 8.3 479.3 8.3 "/><polygon class="st3" points="521.6 91.8 545.6 133.3 545.6 128.7 523 89.5 "/><polygon class="st3" points="274 128.7 251.4 89.5 250.1 91.8 274 133.3 274 133.3 290.8 162.3 293.5 162.3 274 128.7 "/><polygon class="st3" points="274 148.9 274 148.9 281.8 162.3 284.4 162.3 274 144.3 274 144.3 251.4 105.1 250.1 107.4 "/><polygon class="st3" points="293.5 83.9 290.8 83.9 296.7 94.1 298 91.8 "/><polygon class="st3" points="281.8 83.9 296.7 109.8 298 107.4 284.4 83.9 "/><polygon class="st3" points="209.1 167.4 274 167.4 274 167.4 281.5 167.4 282.8 165.1 274 165.1 274 165.1 207.7 165.1 "/><polygon class="st3" points="296.7 125.4 298 123.1 275.4 83.9 274 83.9 274 83.9 272.7 83.9 274 86.2 274 86.2 "/><polygon class="st3" points="274 240.7 274 240.7 272.7 240.7 274 243 295.3 279.9 296.7 282.2 298 279.9 298 279.9 298 279.9 275.4 240.7 "/><polygon class="st3" points="265.3 237.9 274 237.9 274 237.9 340.3 237.9 339 235.6 274 235.6 274 235.6 266.6 235.6 "/><polygon class="st3" points="274 258.7 274 258.7 286.3 279.9 286.3 279.9 296.7 297.9 298 295.6 289 279.9 289 279.9 274 254.1 274 254.1 266.3 240.7 263.7 240.7 "/><polygon class="st3" points="269.8 230.1 272.4 230.1 274 227.3 274 227.3 304.1 175.2 302.8 172.9 274 222.7 274 222.7 "/><polygon class="st3" points="274 175.7 274 175.7 244 227.8 245.3 230.1 274 180.3 274 180.3 278.3 172.9 275.6 172.9 "/><polygon class="st3" points="274 -7.8 281.8 5.5 284.4 5.5 274 -12.5 274 -12.5 261.8 -33.7 259.1 -33.7 274 -7.8 "/><polygon class="st3" points="316.1 -33.7 313.4 -33.7 299.9 -10.1 301.2 -7.8 "/><polygon class="st3" points="437 23.5 447.4 5.5 444.7 5.5 435.6 21.2 "/><polygon class="st3" points="307.1 -33.7 304.4 -33.7 299.9 -25.8 301.2 -23.5 "/><polygon class="st3" points="298 -33.7 298 -33.7 295.3 -33.7 296.7 -31.4 "/><polygon class="st3" points="377.9 -5.1 361.4 -33.7 358.7 -33.7 375.2 -5.1 "/><polygon class="st3" points="298 -18 289 -33.7 286.3 -33.7 296.7 -15.7 "/><polygon class="st3" points="364.3 -12.9 352.3 -33.7 349.7 -33.7 361.6 -12.9 "/><polygon class="st3" points="350.7 -20.8 343.3 -33.7 340.6 -33.7 348.1 -20.8 "/><polygon class="st3" points="298 -2.3 279.9 -33.7 277.2 -33.7 296.7 0 "/><polygon class="st3" points="370.4 -33.7 367.8 -33.7 366.2 -30.9 367.5 -28.6 "/><polygon class="st3" points="274 -23.5 290.8 5.5 293.5 5.5 274 -28.1 274 -28.1 270.8 -33.7 268.2 -33.7 274 -23.5 "/><polygon class="st3" points="274 65.9 269.8 73.3 272.4 73.3 274 70.6 304.1 18.4 302.8 16.1 274 65.9 "/><polygon class="st3" points="337.1 -28.6 334.2 -33.7 331.5 -33.7 334.5 -28.6 "/><polygon class="st3" points="376.5 24 328.6 24 329.9 26.3 375.2 26.3 "/><polygon class="st3" points="372 31.8 342.2 31.8 343.5 34.1 370.7 34.1 "/><polygon class="st3" points="333.1 31.8 352.6 65.5 353.9 63.2 335.8 31.8 "/><polygon class="st3" points="316.4 18.4 379.7 18.4 381.1 16.1 315 16.1 "/><polygon class="st3" points="319.6 24 348.1 73.3 349.4 71 322.2 24 "/><polygon class="st3" points="344.9 89 417.3 89 418.6 86.7 343.5 86.7 "/><polygon class="st3" points="367.5 39.7 355.8 39.7 357.1 42 366.2 42 "/><polygon class="st3" points="363 47.5 360.3 47.5 361.6 49.8 "/><polygon class="st3" points="358.4 55.3 349.4 39.7 346.7 39.7 357.1 57.6 "/><polygon class="st3" points="382.7 34.6 354.2 83.9 356.8 83.9 384 36.9 "/><polygon class="st3" points="375.2 151.7 377.9 151.7 340.3 86.7 339 89 "/><polygon class="st3" points="316.4 128.2 328.1 128.2 326.8 125.9 317.7 125.9 "/><polygon class="st3" points="390.4 83.9 393 83.9 387.2 73.8 385.9 76.1 "/><polygon class="st3" points="320.9 120.4 320.9 120.4 323.6 120.4 322.2 118 "/><polygon class="st3" points="384 83.9 382.7 81.6 381.3 83.9 384 83.9 "/><polygon class="st3" points="382.7 18.9 345.1 83.9 347.8 83.9 384 21.2 "/><polygon class="st3" points="382.7 65.9 372.3 83.9 374.9 83.9 384 68.2 "/><polygon class="st3" points="382.7 50.3 363.2 83.9 365.9 83.9 384 52.6 "/><polygon class="st3" points="447.6 57.6 477.4 57.6 476.1 55.3 449 55.3 "/><polygon class="st3" points="456.7 42 456.7 42 459.3 42 458 39.7 "/><polygon class="st3" points="461.2 34.1 470.3 49.8 472.9 49.8 462.5 31.8 "/><polygon class="st3" points="325.4 112.5 334.5 128.2 337.1 128.2 326.8 110.2 "/><polygon class="st3" points="452.2 49.8 463.9 49.8 462.5 47.5 453.5 47.5 "/><polygon class="st3" points="526.2 162.3 528.8 162.3 523 152.2 521.6 154.5 "/><polygon class="st3" points="437 70.6 474.5 5.5 471.9 5.5 435.6 68.2 "/><polygon class="st3" points="437 39.2 456.4 5.5 453.7 5.5 435.6 36.9 "/><polygon class="st3" points="437 54.9 465.5 5.5 462.8 5.5 435.6 52.6 "/><polygon class="st3" points="417.5 83.9 420.2 83.9 387.2 26.7 385.9 29 "/><polygon class="st3" points="402.1 83.9 387.2 58.1 385.9 60.4 399.4 83.9 "/><polygon class="st3" points="443.1 65.5 491 65.5 489.7 63.2 444.4 63.2 "/><polygon class="st3" points="408.5 83.9 411.2 83.9 387.2 42.4 385.9 44.7 "/><polygon class="st3" points="390.4 5.5 432.5 78.4 433.8 76.1 393 5.5 "/><polygon class="st3" points="385.9 13.4 426.6 83.9 429.3 83.9 387.2 11.1 "/><polygon class="st3" points="438.6 73.3 504.6 73.3 503.3 71 439.9 71 "/><polygon class="st3" points="470.3 18.4 497.4 65.5 500.1 65.5 471.6 16.1 "/><polygon class="st3" points="432.5 62.7 433.8 60.4 402.1 5.5 399.4 5.5 "/><polygon class="st3" points="486.5 57.6 467.1 24 465.7 26.3 483.8 57.6 "/><polygon class="st3" points="524.3 279.9 523 277.6 521.6 279.9 521.6 279.9 521.6 279.9 544.3 319.1 545.6 319.1 545.6 316.8 524.3 279.9 "/><polygon class="st3" points="526.2 240.7 545.6 274.4 545.6 269.8 528.8 240.7 "/><polygon class="st3" points="533.4 279.9 523 261.9 521.6 264.2 530.7 279.9 530.7 279.9 545.6 305.7 545.6 301.1 533.4 279.9 "/><polygon class="st3" points="542.4 279.9 523 246.2 521.6 248.6 539.7 279.9 539.7 279.9 545.6 290.1 545.6 285.4 542.4 279.9 "/><polygon class="st3" points="518.4 269.8 512.6 279.9 512.6 279.9 490 319.1 492.6 319.1 515.3 279.9 515.3 279.9 519.8 272.1 "/><polygon class="st3" points="518.4 254.1 503.5 279.9 503.5 279.9 480.9 319.1 483.6 319.1 506.2 279.9 506.2 279.9 519.8 256.4 "/><polygon class="st3" points="545.6 243 545.6 240.7 544.3 240.7 "/><polygon class="st3" points="535.2 240.7 545.6 258.7 545.6 254.1 537.9 240.7 "/><polygon class="st3" points="530.4 237.9 545.6 211.7 545.6 207 527.8 237.9 "/><polygon class="st3" points="521.4 237.9 545.6 196 545.6 191.4 520 235.6 "/><polygon class="st3" points="480.6 167.4 545.6 167.4 545.6 165.1 479.3 165.1 "/><polygon class="st3" points="516.9 230.1 545.6 180.3 545.6 175.7 515.5 227.8 "/><polygon class="st3" points="536.8 237.9 545.6 237.9 545.6 235.6 538.1 235.6 "/><polygon class="st3" points="544 230.1 545.6 227.3 545.6 222.7 541.3 230.1 "/><polygon class="st3" points="422.1 279.9 422.1 279.9 405.6 308.5 408.2 308.5 424.7 279.9 424.7 279.9 439.9 253.6 438.6 251.3 "/><polygon class="st3" points="334.5 96.8 361.6 143.9 364.3 143.9 335.8 94.5 "/><polygon class="st3" points="370.7 274.8 367.8 279.9 367.8 279.9 366.2 282.7 367.5 285 370.4 279.9 370.4 279.9 373.3 274.8 "/><polygon class="st3" points="302.8 167.4 384.3 167.4 385.6 165.1 301.5 165.1 "/><polygon class="st3" points="311.8 136 341.7 136 340.3 133.7 313.2 133.7 "/><polygon class="st3" points="307.3 143.9 355.2 143.9 353.9 141.6 308.7 141.6 "/><polygon class="st3" points="302.8 151.7 368.8 151.7 367.5 149.4 304.1 149.4 "/><polygon class="st3" points="298.3 159.6 382.4 159.6 381.1 157.2 299.6 157.2 "/><polygon class="st3" points="440.2 279.9 440.2 279.9 432.7 292.8 435.4 292.8 442.8 279.9 442.8 279.9 449 269.3 447.6 267 "/><polygon class="st3" points="350.7 136 331.3 102.4 329.9 104.7 348.1 136 "/><polygon class="st3" points="431.1 279.9 431.1 279.9 419.1 300.7 421.8 300.7 433.8 279.9 433.8 279.9 444.4 261.5 443.1 259.2 "/><polygon class="st3" points="413 279.9 413 279.9 392 316.3 394.6 316.3 415.7 279.9 415.7 279.9 435.4 245.8 434 243.5 "/><polygon class="st3" points="411.4 251.3 394.9 279.9 394.9 279.9 379.7 306.2 381.1 308.5 397.6 279.9 397.6 279.9 414.1 251.3 "/><polygon class="st3" points="425 243.5 404 279.9 404 279.9 384.3 314 385.6 316.3 406.6 279.9 406.6 279.9 427.7 243.5 "/><polygon class="st3" points="128.9 102.4 126.3 102.4 103.6 141.6 105 143.9 "/><polygon class="st3" points="118.6 104.7 119.9 102.4 81 102.4 82.3 104.7 "/><polygon class="st3" points="156.1 86.7 153.4 86.7 112.7 157.2 114 159.6 "/><polygon class="st3" points="106.3 267 85.5 267 86.9 269.3 105 269.3 "/><polygon class="st3" points="101.8 118 99.1 118 94.6 125.9 95.9 128.2 "/><polygon class="st3" points="133.5 94.5 76.5 94.5 77.8 96.8 132.1 96.8 "/><polygon class="st3" points="115.4 110.2 112.7 110.2 99.1 133.7 100.5 136 "/><polygon class="st3" points="157.7 5.5 155 5.5 160.9 15.7 162.2 13.4 "/><polygon class="st3" points="142.5 94.5 139.9 94.5 108.2 149.4 109.5 151.7 "/><polygon class="st3" points="156.6 143.9 195.5 143.9 194.2 141.6 158 141.6 "/><polygon class="st3" points="143 151.7 200 151.7 198.7 149.4 144.4 149.4 "/><polygon class="st3" points="174.7 128.2 177.4 128.2 181.9 120.4 180.6 118 "/><polygon class="st3" points="161.2 136 163.8 136 177.4 112.5 176.1 110.2 "/><polygon class="st3" points="123.1 159.6 163.8 89 162.5 86.7 120.4 159.6 "/><polygon class="st3" points="136.9 5.5 160.9 47 162.2 44.7 139.6 5.5 "/><polygon class="st3" points="170.2 136 191 136 189.6 133.7 171.5 133.7 "/><polygon class="st3" points="185.1 125.9 183.8 128.2 186.4 128.2 185.1 125.9 "/><polygon class="st3" points="100.5 188.6 70.6 188.6 72 190.9 99.1 190.9 "/><polygon class="st3" points="91.4 204.3 91.4 204.3 88.7 204.3 90.1 206.6 "/><polygon class="st3" points="86.9 212.1 77.8 196.4 75.2 196.4 85.5 214.4 "/><polygon class="st3" points="150.2 143.9 172.9 104.7 171.5 102.4 147.6 143.9 "/><polygon class="st3" points="91.4 120.4 92.7 118 90.1 118 91.4 120.4 "/><polygon class="st3" points="61.6 188.6 81 222.3 82.3 220 64.2 188.6 "/><polygon class="st3" points="118.6 261.5 119.9 259.2 81 259.2 82.3 261.5 "/><polygon class="st3" points="132.1 253.6 133.5 251.3 76.5 251.3 77.8 253.6 "/><polygon class="st3" points="73.3 245.8 145.7 245.8 147 243.5 72 243.5 "/><polygon class="st3" points="95.9 196.4 84.2 196.4 85.5 198.7 94.6 198.7 "/><polygon class="st3" points="112.4 240.7 111.1 238.4 109.8 240.7 112.4 240.7 "/><polygon class="st3" points="111.1 207 91.7 240.7 94.3 240.7 112.4 209.4 "/><polygon class="st3" points="111.1 191.4 82.6 240.7 85.3 240.7 112.4 193.7 "/><polygon class="st3" points="106.3 110.2 85.5 110.2 86.9 112.5 105 112.5 "/><polygon class="st3" points="77.8 227.8 50.7 180.8 48 180.8 76.5 230.1 "/><polygon class="st3" points="112.4 178 111.1 175.7 73.6 240.7 76.2 240.7 "/><polygon class="st3" points="109.5 172.9 43.5 172.9 44.8 175.2 108.2 175.2 "/><polygon class="st3" points="105 180.8 57.1 180.8 58.4 183.1 103.6 183.1 "/><polygon class="st3" points="146 5.5 160.9 31.4 162.2 29 148.6 5.5 "/><polygon class="st3" points="170.2 94.5 207.7 159.6 209.1 157.2 172.9 94.5 "/><polygon class="st3" points="165.4 196 184.9 162.3 182.2 162.3 164.1 193.7 "/><polygon class="st3" points="165.4 211.7 193.9 162.3 191.2 162.3 164.1 209.4 "/><polygon class="st3" points="231.7 118 220 118 221.3 120.4 230.4 120.4 "/><polygon class="st3" points="198.7 175.2 225.8 222.3 228.5 222.3 200 172.9 "/><polygon class="st3" points="165.4 180.3 175.8 162.3 173.1 162.3 164.1 178 "/><polygon class="st3" points="225.8 128.2 227.2 125.9 227.2 125.9 224.5 125.9 "/><polygon class="st3" points="167 230.1 233 230.1 231.7 227.8 168.3 227.8 "/><polygon class="st3" points="164.1 162.3 165.4 164.6 166.7 162.3 164.1 162.3 "/><polygon class="st3" points="165.4 227.3 203 162.3 200.3 162.3 164.1 225 "/><polygon class="st3" points="167 89 248.5 89 249.8 86.7 165.7 86.7 "/><polygon class="st3" points="180.6 96.8 244 96.8 245.3 94.5 179.3 94.5 "/><polygon class="st3" points="183.8 102.4 212.3 151.7 213.6 149.4 186.4 102.4 "/><polygon class="st3" points="222.7 133.7 213.6 118 210.9 118 221.3 136 "/><polygon class="st3" points="162.5 81.2 246.6 81.2 245.3 78.9 163.8 78.9 "/><polygon class="st3" points="240.8 102.4 192.8 102.4 194.2 104.7 239.4 104.7 "/><polygon class="st3" points="197.4 110.2 216.8 143.9 218.1 141.6 200 110.2 "/><polygon class="st3" points="236.2 110.2 206.4 110.2 207.7 112.5 234.9 112.5 "/><polygon class="st3" points="129.5 159.6 204.6 159.6 203.2 157.2 130.8 157.2 "/><polygon class="st3" points="118.8 162.3 160.9 235.2 162.2 232.9 121.5 162.3 "/><polygon class="st3" points="157.7 240.7 115.6 167.8 114.3 170.2 155 240.7 "/><polygon class="st3" points="160.9 219.5 162.2 217.2 130.5 162.3 127.9 162.3 "/><polygon class="st3" points="148.6 240.7 115.6 183.5 114.3 185.8 146 240.7 "/><polygon class="st3" points="118.8 240.7 121.5 240.7 115.6 230.6 114.3 232.9 "/><polygon class="st3" points="171.5 222.3 219.5 222.3 218.1 220 172.9 220 "/><polygon class="st3" points="139.6 240.7 115.6 199.2 114.3 201.5 136.9 240.7 "/><polygon class="st3" points="136.9 162.3 160.9 203.8 162.2 201.5 139.6 162.3 "/><polygon class="st3" points="130.5 240.7 115.6 214.9 114.3 217.2 127.9 240.7 "/><polygon class="st3" points="214.9 214.4 195.5 180.8 194.2 183.1 212.3 214.4 "/><polygon class="st3" points="185.1 198.7 185.1 198.8 187.8 198.7 186.4 196.4 "/><polygon class="st3" points="189.6 190.9 198.7 206.6 201.4 206.6 191 188.6 "/><polygon class="st3" points="176.1 214.4 205.9 214.4 204.6 212.1 177.4 212.1 "/><polygon class="st3" points="148.6 162.3 146 162.3 160.9 188.1 162.2 185.8 "/><polygon class="st3" points="157.7 162.3 155 162.3 160.9 172.5 162.2 170.2 "/><polygon class="st3" points="180.6 206.6 192.3 206.6 191 204.3 181.9 204.3 "/><polygon class="st3" points="134 151.7 136.7 151.7 168.3 96.8 167 94.5 "/><polygon class="st3" points="213.6 175.2 267.9 175.2 269.2 172.9 212.3 172.9 "/><polygon class="st3" points="29.6 133.3 58.1 83.9 55.5 83.9 28.3 131 "/><polygon class="st3" points="29.6 148.9 67.2 83.9 64.5 83.9 28.3 146.6 "/><polygon class="st3" points="34.4 57.6 55.2 57.6 53.9 55.3 35.8 55.3 "/><polygon class="st3" points="49.3 47.5 48 49.8 50.7 49.8 49.3 47.5 "/><polygon class="st3" points="11.8 222.3 14.5 222.3 37.1 183.1 35.8 180.8 "/><polygon class="st3" points="7.3 230.1 64.2 230.1 62.9 227.8 8.6 227.8 "/><polygon class="st3" points="73.3 235.6 37.1 172.9 34.4 172.9 72 237.9 "/><polygon class="st3" points="29.6 101.9 40 83.9 37.4 83.9 28.3 99.6 "/><polygon class="st3" points="28.3 83.9 29.6 86.2 31 83.9 28.3 83.9 "/><polygon class="st3" points="29.6 117.6 49.1 83.9 46.4 83.9 28.3 115.3 "/><polygon class="st3" points="73.3 78.9 37.1 16.1 34.4 16.1 72 81.2 "/><polygon class="st3" points="109.5 0.5 28 0.5 26.7 2.8 110.8 2.8 "/><polygon class="st3" points="7.3 73.3 64.2 73.3 62.9 71 8.6 71 "/><polygon class="st3" points="55.2 -30.9 46.1 -30.9 44.8 -28.6 56.5 -28.6 "/><polygon class="st3" points="25.4 57.6 28 57.6 41.6 34.1 40.3 31.8 "/><polygon class="st3" points="38.9 49.8 41.6 49.8 46.1 42 44.8 39.7 "/><polygon class="st3" points="20.8 65.5 59.7 65.5 58.4 63.2 22.2 63.2 "/><polygon class="st3" points="11.8 65.5 14.5 65.5 37.1 26.3 35.8 24 "/><polygon class="st3" points="62.9 253.6 78.1 279.9 78.1 279.9 90.1 300.7 92.7 300.7 80.8 279.9 80.8 279.9 64.2 251.3 "/><polygon class="st3" points="28.3 240.7 29.6 243 31 240.7 28.3 240.7 "/><polygon class="st3" points="29.6 274.4 49.1 240.7 46.4 240.7 28.3 272.1 "/><polygon class="st3" points="29.6 258.7 40 240.7 37.4 240.7 28.3 256.4 "/><polygon class="st3" points="49.3 277.1 49.3 277.1 52 277.1 50.7 274.8 "/><polygon class="st3" points="21.9 240.7 19.2 240.7 25.1 250.9 26.4 248.6 "/><polygon class="st3" points="10.2 240.7 25.1 266.5 26.4 264.2 12.9 240.7 "/><polygon class="st3" points="49.3 204.3 48 206.6 50.7 206.6 49.3 204.3 "/><polygon class="st3" points="53.9 269.3 60 279.9 60 279.9 62.9 285 65.6 285 62.6 279.9 62.6 279.9 55.2 267 "/><polygon class="st3" points="34.4 214.4 55.2 214.4 53.9 212.1 35.8 212.1 "/><polygon class="st3" points="20.8 222.3 59.7 222.3 58.4 220 22.2 220 "/><polygon class="st3" points="38.9 206.6 41.6 206.6 46.1 198.7 44.8 196.4 "/><polygon class="st3" points="25.4 214.4 28 214.4 41.6 190.9 40.3 188.6 "/><polygon class="st3" points="59.7 259.2 58.4 261.5 69 279.9 69 279.9 76.5 292.8 79.2 292.8 71.7 279.9 71.7 279.9 "/><polygon class="st3" points="40.3 -20.8 70.1 -20.8 68.8 -23.1 41.6 -23.1 "/><polygon class="st3" points="87.1 279.9 87.1 279.9 103.6 308.5 106.3 308.5 89.8 279.9 89.8 279.9 68.8 243.5 67.4 245.8 "/><polygon class="st3" points="246.9 128.7 227.4 162.3 230.1 162.3 248.2 131 "/><polygon class="st3" points="255.7 180.8 216.8 180.8 218.1 183.1 254.3 183.1 "/><polygon class="st3" points="237.6 196.4 234.9 196.4 230.4 204.3 231.7 206.6 "/><polygon class="st3" points="264.7 180.8 262.1 180.8 239.4 220 240.8 222.3 "/><polygon class="st3" points="251.1 188.6 248.5 188.6 234.9 212.1 236.2 214.4 "/><polygon class="st3" points="227.2 198.7 228.5 196.4 225.8 196.4 227.2 198.7 "/><polygon class="st3" points="246.9 113 218.4 162.3 221.1 162.3 248.2 115.3 "/><polygon class="st3" points="242.1 188.6 221.3 188.6 222.7 190.9 240.8 190.9 "/><polygon class="st3" points="246.9 97.3 209.3 162.3 212 162.3 248.2 99.6 "/><polygon class="st3" points="164.1 5.5 165.4 7.8 166.7 5.5 164.1 5.5 "/><polygon class="st3" points="236.2 267 206.4 267 207.7 269.3 234.9 269.3 "/><polygon class="st3" points="240.8 259.2 192.8 259.2 194.2 261.5 239.4 261.5 "/><polygon class="st3" points="245.3 251.3 179.3 251.3 180.6 253.6 244 253.6 "/><polygon class="st3" points="162.5 237.9 246.6 237.9 245.3 235.6 163.8 235.6 "/><polygon class="st3" points="203.2 167.4 239.4 230.1 242.1 230.1 204.6 165.1 "/><polygon class="st3" points="91.4 277.1 92.7 274.8 90.1 274.8 91.4 277.1 "/><polygon class="st3" points="231.7 274.8 220 274.8 221.3 277.1 230.4 277.1 "/><polygon class="st3" points="248.5 245.8 249.8 243.5 165.7 243.5 167 245.8 "/><polygon class="st3" points="191 -20.8 189.6 -23.1 171.5 -23.1 170.2 -20.8 "/><polygon class="st3" points="143 -5.1 200 -5.1 198.7 -7.4 144.4 -7.4 "/><polygon class="st3" points="37.1 -15.2 35.8 -12.9 83.7 -12.9 82.3 -15.2 "/><polygon class="st3" points="158 -15.2 156.6 -12.9 195.5 -12.9 194.2 -15.2 "/><polygon class="st3" points="242.1 31.8 221.3 31.8 222.7 34.1 240.8 34.1 "/><polygon class="st3" points="129.5 2.8 204.6 2.8 203.2 0.5 130.8 0.5 "/><polygon class="st3" points="31.2 -5.1 97.3 -5.1 95.9 -7.4 32.6 -7.4 "/><polygon class="st3" points="185.1 -30.9 185.1 -30.9 183.8 -28.6 186.4 -28.6 "/><polygon class="st3" points="246.9 144.3 236.5 162.3 239.2 162.3 248.2 146.6 "/><polygon class="st3" points="31.2 10.6 112.7 10.6 114 8.3 29.9 8.3 "/><polygon class="st3" points="227.2 42 228.5 39.7 225.8 39.7 227.2 42 "/><polygon class="st3" points="269.2 16.1 212.3 16.1 213.6 18.4 267.9 18.4 "/><polygon class="st3" points="248.2 162.3 246.9 160 245.6 162.3 248.2 162.3 "/><polygon class="st3" points="264.7 24 262.1 24 239.4 63.2 240.8 65.5 "/><polygon class="st3" points="203.2 10.6 239.4 73.3 242.1 73.3 204.6 8.3 "/><polygon class="st3" points="254.3 26.3 255.7 24 216.8 24 218.1 26.3 "/><polygon class="st3" points="251.1 31.8 248.5 31.8 234.9 55.3 236.2 57.6 "/><polygon class="st3" points="237.6 39.7 234.9 39.7 230.4 47.5 231.7 49.8 "/><polygon class="st3" points="111.1 222.7 100.7 240.7 103.4 240.7 112.4 225 "/><polygon class="st3" points="209.1 0.5 189.4 -33.7 186.7 -33.7 207.7 2.8 "/><polygon class="st3" points="218.1 -15.2 207.5 -33.7 204.8 -33.7 216.8 -12.9 "/><polygon class="st3" points="213.6 -7.4 198.4 -33.7 195.8 -33.7 212.3 -5.1 "/><polygon class="st3" points="227.2 -30.9 227.2 -30.9 224.5 -30.9 225.8 -28.6 "/><polygon class="st3" points="222.7 -23.1 216.5 -33.7 213.9 -33.7 221.3 -20.8 "/><polygon class="st3" points="107.9 -33.7 105.2 -33.7 99.1 -23.1 100.5 -20.8 "/><polygon class="st3" points="212 5.5 234.6 -33.7 232 -33.7 209.3 5.5 "/><polygon class="st3" points="221.1 5.5 243.7 -33.7 241 -33.7 218.4 5.5 "/><polygon class="st3" points="274 5.5 274 5.5 275.4 5.5 274 3.2 274 3.2 252.7 -33.7 250.1 -33.7 272.7 5.5 "/><polygon class="st3" points="114 2.8 135.1 -33.7 132.4 -33.7 112.7 0.5 "/><polygon class="st3" points="109.5 -5.1 126 -33.7 123.3 -33.7 108.2 -7.4 "/><polygon class="st3" points="180.3 -33.7 177.7 -33.7 174.7 -28.6 177.4 -28.6 "/><polygon class="st3" points="105 -12.9 117 -33.7 114.3 -33.7 103.6 -15.2 "/><polygon class="st3" points="123.1 2.8 144.1 -33.7 141.5 -33.7 120.4 2.8 "/><polygon class="st3" points="163.8 -20.8 171.3 -33.7 168.6 -33.7 161.2 -20.8 "/><polygon class="st3" points="150.2 -12.9 162.2 -33.7 159.6 -33.7 147.6 -12.9 "/><polygon class="st3" points="136.7 -5.1 153.2 -33.7 150.5 -33.7 134 -5.1 "/><polygon class="st3" points="250.1 -18 263.7 5.5 266.3 5.5 251.4 -20.3 "/><polygon class="st3" points="265.3 81.2 274 81.2 274 81.2 340.3 81.2 339 78.9 274 78.9 274 78.9 266.6 78.9 "/><polygon class="st3" points="254.6 83.9 274 117.6 274 117.6 296.7 156.8 298 154.5 274 113 274 113 257.3 83.9 "/><polygon class="st3" points="266.3 162.3 251.4 136.5 250.1 138.8 263.7 162.3 "/><polygon class="st3" points="272.7 162.3 274 162.3 274 162.3 275.4 162.3 274 160 274 160 251.4 120.8 250.1 123.1 "/><polygon class="st3" points="274 101.9 274 101.9 296.7 141.1 298 138.8 274 97.3 274 97.3 266.3 83.9 263.7 83.9 "/><polygon class="st3" points="248.2 5.5 248.2 5.5 246.9 3.2 245.6 5.5 "/><polygon class="st3" points="236.5 5.5 239.2 5.5 248.2 -10.1 246.9 -12.5 "/><polygon class="st3" points="274 50.3 256.2 81.2 258.9 81.2 274 54.9 274 54.9 299.6 10.6 298.3 8.3 274 50.3 "/><polygon class="st3" points="230.1 5.5 248.2 -25.8 246.9 -28.1 227.4 5.5 "/><polygon class="st3" points="257.3 5.5 251.4 -4.6 250.1 -2.3 254.6 5.5 "/><polygon class="st3" points="274 39.2 291.9 8.3 289.2 8.3 274 34.6 274 34.6 248.5 78.9 249.8 81.2 274 39.2 "/><polygon class="st3" points="274 23.5 274 23.5 278.3 16.1 275.6 16.1 274 18.9 274 18.9 244 71 245.3 73.3 "/><polygon class="st3" points="209.1 10.6 274 10.6 274 10.6 281.5 10.6 282.8 8.3 274 8.3 274 8.3 207.7 8.3 "/><polygon class="st3" points="26.4 154.5 2.5 113 2.5 117.6 25.1 156.8 "/><polygon class="st3" points="21.9 162.3 2.5 128.7 2.5 133.3 19.2 162.3 "/><polygon class="st3" points="12.9 162.3 2.5 144.3 2.5 148.9 10.2 162.3 "/><polygon class="st3" points="2.5 160 2.5 162.3 3.8 162.3 "/><polygon class="st3" points="21.9 83.9 19.2 83.9 25.1 94.1 26.4 91.8 "/><polygon class="st3" points="26.4 138.8 2.5 97.3 2.5 101.9 25.1 141.1 "/><polygon class="st3" points="10.2 83.9 25.1 109.8 26.4 107.4 12.9 83.9 "/><polygon class="st3" points="11.3 165.1 2.5 165.1 2.5 167.4 9.9 167.4 "/><polygon class="st3" points="26.4 123.1 3.8 83.9 2.5 83.9 2.5 86.2 25.1 125.4 "/><polygon class="st3" points="67.4 78.9 2.5 78.9 2.5 81.2 68.8 81.2 "/><polygon class="st3" points="67.4 235.6 2.5 235.6 2.5 237.9 68.8 237.9 "/><polygon class="st3" points="26.7 165.1 2.5 207 2.5 211.7 28 167.4 "/><polygon class="st3" points="17.7 165.1 2.5 191.4 2.5 196 20.3 165.1 "/><polygon class="st3" points="31.2 172.9 2.5 222.7 2.5 227.3 32.6 175.2 "/><polygon class="st3" points="4.1 172.9 2.5 175.7 2.5 180.3 6.7 172.9 "/><polygon class="st3" points="12.9 5.5 2.5 -12.5 2.5 -7.8 10.2 5.5 "/><polygon class="st3" points="44.5 -33.7 41.9 -33.7 28.3 -10.1 29.6 -7.8 "/><polygon class="st3" points="165.4 23.5 175.8 5.5 173.1 5.5 164.1 21.2 "/><polygon class="st3" points="35.5 -33.7 32.8 -33.7 28.3 -25.8 29.6 -23.5 "/><polygon class="st3" points="26.4 -33.7 26.4 -33.7 23.8 -33.7 25.1 -31.4 "/><polygon class="st3" points="106.3 -5.1 89.8 -33.7 87.1 -33.7 103.6 -5.1 "/><polygon class="st3" points="26.4 -18 17.4 -33.7 14.7 -33.7 25.1 -15.7 "/><polygon class="st3" points="92.7 -12.9 80.8 -33.7 78.1 -33.7 90.1 -12.9 "/><polygon class="st3" points="79.2 -20.8 71.7 -33.7 69 -33.7 76.5 -20.8 "/><polygon class="st3" points="26.4 -2.3 8.3 -33.7 5.7 -33.7 25.1 0 "/><polygon class="st3" points="17.7 8.3 2.5 34.6 2.5 39.2 20.3 8.3 "/><polygon class="st3" points="11.3 8.3 2.5 8.3 2.5 10.6 9.9 10.6 "/><polygon class="st3" points="4.1 16.1 2.5 18.9 2.5 23.5 6.7 16.1 "/><polygon class="st3" points="26.7 8.3 2.5 50.3 2.5 54.9 28 10.6 "/><polygon class="st3" points="98.9 -33.7 96.2 -33.7 94.6 -30.9 95.9 -28.6 "/><polygon class="st3" points="21.9 5.5 2.5 -28.1 2.5 -23.5 19.2 5.5 "/><polygon class="st3" points="2.5 3.2 2.5 5.5 3.8 5.5 "/><polygon class="st3" points="31.2 16.1 2.5 65.9 2.5 70.6 32.6 18.4 "/><polygon class="st3" points="65.6 -28.6 62.6 -33.7 60 -33.7 62.9 -28.6 "/><polygon class="st3" points="105 24 57.1 24 58.4 26.3 103.6 26.3 "/><polygon class="st3" points="100.5 31.8 70.6 31.8 72 34.1 99.1 34.1 "/><polygon class="st3" points="61.6 31.8 81 65.5 82.3 63.2 64.2 31.8 "/><polygon class="st3" points="109.5 16.1 43.5 16.1 44.8 18.4 108.2 18.4 "/><polygon class="st3" points="77.8 71 50.7 24 48 24 76.5 73.3 "/><polygon class="st3" points="73.3 89 145.7 89 147 86.7 72 86.7 "/><polygon class="st3" points="95.9 39.7 84.2 39.7 85.5 42 94.6 42 "/><polygon class="st3" points="91.4 47.5 88.7 47.5 90.1 49.8 "/><polygon class="st3" points="86.9 55.3 77.8 39.7 75.2 39.7 85.5 57.6 "/><polygon class="st3" points="111.1 34.6 82.6 83.9 85.3 83.9 112.4 36.9 "/><polygon class="st3" points="103.6 151.7 106.3 151.7 68.8 86.7 67.4 89 "/><polygon class="st3" points="44.8 128.2 56.5 128.2 55.2 125.9 46.1 125.9 "/><polygon class="st3" points="118.8 83.9 121.5 83.9 115.6 73.8 114.3 76.1 "/><polygon class="st3" points="49.3 120.4 49.3 120.4 52 120.4 50.7 118 "/><polygon class="st3" points="112.4 83.9 111.1 81.6 109.8 83.9 112.4 83.9 "/><polygon class="st3" points="112.4 21.2 111.1 18.9 73.6 83.9 76.2 83.9 "/><polygon class="st3" points="111.1 65.9 100.7 83.9 103.4 83.9 112.4 68.2 "/><polygon class="st3" points="111.1 50.3 91.7 83.9 94.3 83.9 112.4 52.6 "/><polygon class="st3" points="176.1 57.6 205.9 57.6 204.6 55.3 177.4 55.3 "/><polygon class="st3" points="185.1 42 185.1 42 187.8 42 186.4 39.7 "/><polygon class="st3" points="189.6 34.1 198.7 49.8 201.4 49.8 191 31.8 "/><polygon class="st3" points="53.9 112.5 62.9 128.2 65.6 128.2 55.2 110.2 "/><polygon class="st3" points="180.6 49.8 192.3 49.8 191 47.5 181.9 47.5 "/><polygon class="st3" points="254.6 162.3 257.3 162.3 251.4 152.2 250.1 154.5 "/><polygon class="st3" points="165.4 70.6 203 5.5 200.3 5.5 164.1 68.2 "/><polygon class="st3" points="165.4 39.2 184.9 5.5 182.2 5.5 164.1 36.9 "/><polygon class="st3" points="165.4 54.9 193.9 5.5 191.2 5.5 164.1 52.6 "/><polygon class="st3" points="146 83.9 148.6 83.9 115.6 26.7 114.3 29 "/><polygon class="st3" points="130.5 83.9 115.6 58.1 114.3 60.4 127.9 83.9 "/><polygon class="st3" points="171.5 65.5 219.5 65.5 218.1 63.2 172.9 63.2 "/><polygon class="st3" points="136.9 83.9 139.6 83.9 115.6 42.4 114.3 44.7 "/><polygon class="st3" points="118.8 5.5 160.9 78.4 162.2 76.1 121.5 5.5 "/><polygon class="st3" points="114.3 13.4 155 83.9 157.7 83.9 115.6 11.1 "/><polygon class="st3" points="167 73.3 233 73.3 231.7 71 168.3 71 "/><polygon class="st3" points="198.7 18.4 225.8 65.5 228.5 65.5 200 16.1 "/><polygon class="st3" points="160.9 62.7 162.2 60.4 130.5 5.5 127.9 5.5 "/><polygon class="st3" points="214.9 57.6 195.5 24 194.2 26.3 212.3 57.6 "/><polygon class="st3" points="251.4 277.6 250.1 279.9 250.1 279.9 250.1 279.9 272.7 319.1 274 319.1 274 319.1 275.4 319.1 274 316.8 274 316.8 252.7 279.9 252.7 279.9 "/><polygon class="st3" points="254.6 240.7 274 274.4 274 274.4 277.2 279.9 277.2 279.9 296.7 313.6 298 311.3 279.9 279.9 279.9 279.9 274 269.8 274 269.8 257.3 240.7 "/><polygon class="st3" points="246.9 269.8 241 279.9 241 279.9 218.4 319.1 221.1 319.1 243.7 279.9 243.7 279.9 248.2 272.1 "/><polygon class="st3" points="246.9 254.1 232 279.9 232 279.9 209.3 319.1 212 319.1 234.6 279.9 234.6 279.9 248.2 256.4 "/><polygon class="st3" points="256.2 237.9 258.9 237.9 274 211.7 274 211.7 299.6 167.4 298.3 165.1 274 207 "/><polygon class="st3" points="274 196 291.9 165.1 289.2 165.1 274 191.4 274 191.4 248.5 235.6 249.8 237.9 274 196 "/><polygon class="st3" points="62.9 96.8 90.1 143.9 92.7 143.9 64.2 94.5 "/><polygon class="st3" points="99.1 274.8 96.2 279.9 96.2 279.9 94.6 282.7 95.9 285 98.9 279.9 98.9 279.9 101.8 274.8 "/><polygon class="st3" points="112.7 167.4 114 165.1 29.9 165.1 31.2 167.4 "/><polygon class="st3" points="40.3 136 70.1 136 68.8 133.7 41.6 133.7 "/><polygon class="st3" points="35.8 143.9 83.7 143.9 82.3 141.6 37.1 141.6 "/><polygon class="st3" points="31.2 151.7 97.3 151.7 95.9 149.4 32.6 149.4 "/><polygon class="st3" points="26.7 159.6 110.8 159.6 109.5 157.2 28 157.2 "/><polygon class="st3" points="168.6 279.9 168.6 279.9 161.2 292.8 163.8 292.8 171.3 279.9 171.3 279.9 177.4 269.3 176.1 267 "/><polygon class="st3" points="79.2 136 59.7 102.4 58.4 104.7 76.5 136 "/></g></svg>