<?xml version="1.0" encoding="utf-8"?>
<!-- Generator: Adobe Illustrator 15.0.0, SVG Export Plug-In . SVG Version: 6.00 Build 0)  -->
<!DOCTYPE svg PUBLIC "-//W3C//DTD SVG 1.1//EN" "http://www.w3.org/Graphics/SVG/1.1/DTD/svg11.dtd">
<svg version="1.1" id="Слой_1" xmlns="http://www.w3.org/2000/svg" xmlns:xlink="http://www.w3.org/1999/xlink" x="0px" y="0px"
	 width="50px" height="50px" viewBox="0 0 50 50" enable-background="new 0 0 50 50" xml:space="preserve">
<g>
	<path d="M44,7V2.8C44,1.256,42.744,0,41.2,0H2.8C1.256,0,0,1.256,0,2.8V7H44z"/>
	<path d="M48.8,26.1c-1.3-1.3-3.252-1.524-4.8-0.712V9H0v31c0,0.553,0.448,1,1,1h27.186l-1.293,1.293
		c-0.121,0.121-0.209,0.271-0.255,0.435l-1.7,6c-0.098,0.346-0.002,0.718,0.25,0.974C25.378,49.896,25.636,50,25.9,50
		c0.086,0,0.173-0.011,0.258-0.034l6-1.6c0.169-0.045,0.323-0.133,0.447-0.257l15.8-15.7c0.1-0.099,0.173-0.214,0.222-0.337
		L48.8,31.9C50.4,30.3,50.4,27.7,48.8,26.1z M14,15h23v2H14V15z M14,20h23v2H14V20z M14,25h23v2H14V25z M11,32H7v-2h4V32z M11,27H7
		v-2h4V27z M11,22H7v-2h4V22z M11,17H7v-2h4V17z M14,32v-2h19v2H14z M31.386,46.502l-2.928-2.861l0.033-0.117l15.266-15.267
		l2.985,2.985L31.386,46.502z"/>
</g>
</svg>
