<?xml version="1.0" encoding="utf-8"?>
<!-- Generator: Adobe Illustrator 15.0.0, SVG Export Plug-In . SVG Version: 6.00 Build 0)  -->
<!DOCTYPE svg PUBLIC "-//W3C//DTD SVG 1.1//EN" "http://www.w3.org/Graphics/SVG/1.1/DTD/svg11.dtd">
<svg xmlns="http://www.w3.org/2000/svg" xmlns:xlink="http://www.w3.org/1999/xlink" version="1.1" id="Layer_1" x="0px" y="0px" width="26px" height="26px" viewBox="0 0 26 26" enable-background="new 0 0 26 26" xml:space="preserve">


<g>
	<path fill="#000000" d="M6.313,0.024h1.502L8.783,3.89h0.094l0.924-3.865h1.518L9.582,5.679v4.013H8.089v-3.83L6.313,0.024z"/>
	<path fill="#000000" d="M11.251,4.191c0-0.552,0.179-0.993,0.536-1.319c0.357-0.327,0.836-0.492,1.438-0.492   c0.551,0,1,0.172,1.349,0.519C14.924,3.242,15.1,3.688,15.1,4.23v3.684c0,0.61-0.172,1.089-0.515,1.438   c-0.345,0.347-0.816,0.521-1.419,0.521c-0.582,0-1.044-0.181-1.395-0.539c-0.348-0.357-0.521-0.84-0.521-1.446V4.191z    M12.614,8.021c0,0.195,0.047,0.348,0.145,0.455c0.093,0.106,0.228,0.16,0.403,0.16c0.181,0,0.321-0.055,0.428-0.165   c0.105-0.107,0.159-0.258,0.159-0.45V4.137c0-0.154-0.055-0.281-0.163-0.377c-0.107-0.095-0.249-0.145-0.424-0.145   c-0.162,0-0.295,0.05-0.396,0.145c-0.101,0.096-0.152,0.223-0.152,0.377V8.021z"/>
	<path fill="#000000" d="M20.01,2.561v7.131h-1.326V8.904c-0.244,0.291-0.498,0.512-0.764,0.663c-0.263,0.15-0.52,0.228-0.768,0.228   c-0.306,0-0.537-0.106-0.693-0.318s-0.233-0.529-0.233-0.956v-5.96h1.325v5.469c0,0.166,0.028,0.289,0.085,0.364   c0.054,0.074,0.146,0.114,0.269,0.114c0.098,0,0.222-0.05,0.369-0.15c0.15-0.099,0.286-0.229,0.41-0.383V2.561H20.01z"/>
</g>
<g>
	<path fill="#000000" d="M20.173,17.284c-0.159,0-0.269,0.043-0.334,0.132c-0.047,0.066-0.104,0.22-0.104,0.553v0.57h0.869v-0.57   c0-0.328-0.061-0.483-0.111-0.556C20.431,17.326,20.326,17.284,20.173,17.284z"/>
	<path fill="#000000" d="M15.084,17.313c-0.062,0.031-0.124,0.078-0.188,0.143v4.322c0.08,0.081,0.158,0.141,0.231,0.178   c0.081,0.04,0.163,0.06,0.252,0.06c0.169,0,0.221-0.068,0.237-0.091c0.041-0.052,0.087-0.161,0.087-0.398v-3.682   c0-0.204-0.038-0.363-0.111-0.459C15.494,17.254,15.302,17.203,15.084,17.313z"/>
	<path fill="#000000" d="M23.777,14.409c0-1.722-1.413-3.119-3.153-3.119c-2.486-0.104-5.03-0.149-7.627-0.146   c-2.595-0.003-5.14,0.042-7.627,0.146c-1.739,0-3.152,1.397-3.152,3.119c-0.104,1.362-0.151,2.727-0.147,4.092   c-0.004,1.363,0.043,2.727,0.148,4.092c0,1.724,1.412,3.121,3.151,3.121c2.487,0.103,5.032,0.148,7.627,0.143   c2.597,0.006,5.141-0.04,7.627-0.143c1.74,0,3.153-1.397,3.153-3.121c0.104-1.365,0.152-2.729,0.147-4.092   C23.93,17.136,23.882,15.771,23.777,14.409z M6.952,23.195c0,0.083-0.067,0.15-0.15,0.15H5.309c-0.083,0-0.15-0.067-0.15-0.15   v-8.114H3.765c-0.083,0-0.15-0.067-0.15-0.15v-1.4c0-0.083,0.067-0.15,0.15-0.15h4.582c0.083,0,0.15,0.067,0.15,0.15v1.4   c0,0.083-0.067,0.15-0.15,0.15H6.952V23.195z M12.265,23.195c0,0.083-0.067,0.15-0.15,0.15h-1.327c-0.083,0-0.15-0.067-0.15-0.15   V22.79c-0.177,0.172-0.354,0.308-0.538,0.412c-0.289,0.166-0.565,0.247-0.845,0.247c-0.355,0-0.629-0.128-0.813-0.38   c-0.174-0.239-0.263-0.591-0.263-1.045v-5.959c0-0.083,0.067-0.15,0.15-0.15h1.327c0.083,0,0.15,0.067,0.15,0.15v5.465   c0,0.179,0.033,0.252,0.053,0.28c0.009,0.012,0.036,0.05,0.149,0.05c0.038,0,0.126-0.016,0.283-0.124   c0.128-0.086,0.243-0.19,0.345-0.313v-5.358c0-0.083,0.067-0.15,0.15-0.15h1.327c0.083,0,0.15,0.067,0.15,0.15V23.195z    M17.368,21.718c0,0.541-0.116,0.964-0.345,1.257c-0.237,0.306-0.579,0.461-1.018,0.461c-0.279,0-0.535-0.058-0.762-0.172   c-0.121-0.062-0.238-0.142-0.349-0.24v0.172c0,0.083-0.067,0.15-0.15,0.15h-1.338c-0.083,0-0.15-0.067-0.15-0.15V13.53   c0-0.083,0.067-0.15,0.15-0.15h1.338c0.083,0,0.15,0.067,0.15,0.15v2.734c0.11-0.1,0.226-0.184,0.345-0.252   c0.226-0.126,0.456-0.189,0.686-0.189c0.468,0,0.832,0.175,1.082,0.52c0.239,0.331,0.36,0.809,0.36,1.42V21.718z M22.269,19.799   c0,0.083-0.067,0.15-0.15,0.15h-2.384v1.193c0,0.436,0.059,0.621,0.107,0.7c0.039,0.064,0.111,0.146,0.319,0.146   c0.168,0,0.282-0.04,0.341-0.12c0.028-0.042,0.102-0.206,0.102-0.727v-0.497c0-0.083,0.067-0.15,0.15-0.15h1.364   c0.083,0,0.15,0.067,0.15,0.15v0.536c0,0.768-0.182,1.357-0.538,1.753c-0.357,0.4-0.896,0.604-1.601,0.604   c-0.636,0-1.146-0.216-1.515-0.641c-0.364-0.419-0.549-0.996-0.549-1.717v-3.2c0-0.656,0.203-1.199,0.604-1.616   c0.402-0.418,0.928-0.63,1.562-0.63c0.648,0,1.156,0.198,1.509,0.589c0.351,0.389,0.528,0.945,0.528,1.657V19.799z"/>
</g>
</svg>
